#VRML V2.0 utf8

Shape {
  appearance Appearance {
    material Material {
      diffuseColor 0.5020 0.5020 0.5020
      specularColor 0.2510 0.2510 0.2510
      ambientIntensity 0.2
      transparency 0.0000
      shininess 0.5
    }
  }
  geometry IndexedFaceSet {
    ccw TRUE
    solid FALSE
    coord DEF co Coordinate {
      point [
        -0.048022 -0.118110 -0.133858,
        -0.187008 -0.118110 -0.133858,
        -0.187008 -0.108268 -0.133858,
        -0.009911 -0.118110 -0.133858,
        -0.048022 -0.108268 -0.133858,
        -0.002517 -0.118110 -0.133858,
        -0.009911 -0.108268 -0.133858,
        0.003244 -0.118110 -0.133858,
        -0.002517 -0.108268 -0.133858,
        -0.192913 0.118110 -0.133858,
        -0.187008 0.118110 -0.133858,
        -0.187008 0.022217 -0.133858,
        0.078740 0.098425 -0.133858,
        0.078740 0.022217 -0.133858,
        0.046658 0.022217 -0.133858,
        0.192913 -0.118110 -0.133858,
        0.046658 -0.118110 -0.133858,
        0.046658 -0.108268 -0.133858,
        0.196850 -0.108268 -0.133858,
        0.196850 -0.114173 -0.133858,
        0.196716 -0.115192 -0.133858,
        0.196323 -0.116142 -0.133858,
        0.195697 -0.116957 -0.133858,
        0.193932 -0.117976 -0.133858,
        0.194882 -0.117583 -0.133858,
        0.196323 0.116142 -0.133858,
        0.196716 0.115192 -0.133858,
        0.177165 0.098425 -0.133858,
        0.196850 0.114173 -0.133858,
        0.177165 0.022217 -0.133858,
        0.046658 0.118110 -0.133858,
        0.192913 0.118110 -0.133858,
        0.193932 0.117976 -0.133858,
        0.194882 0.117583 -0.133858,
        0.195697 0.116957 -0.133858,
        -0.196850 0.022217 -0.133858,
        -0.196850 0.114173 -0.133858,
        -0.196716 0.115192 -0.133858,
        -0.196323 0.116142 -0.133858,
        -0.195697 0.116957 -0.133858,
        -0.193932 0.117976 -0.133858,
        -0.194882 0.117583 -0.133858,
        -0.196850 -0.108268 -0.133858,
        -0.192913 -0.118110 -0.133858,
        -0.196850 -0.114173 -0.133858,
        -0.195697 -0.116957 -0.133858,
        -0.196323 -0.116142 -0.133858,
        -0.196716 -0.115192 -0.133858,
        -0.194882 -0.117583 -0.133858,
        -0.193932 -0.117976 -0.133858,
        0.078740 -0.021186 -0.133858,
        0.078740 -0.098425 -0.133858,
        0.177165 -0.098425 -0.133858,
        0.196850 -0.021186 -0.133858,
        0.046658 -0.021186 -0.133858,
        0.046658 -0.002954 -0.133858,
        0.078740 -0.002954 -0.133858,
        0.046658 0.005017 -0.133858,
        0.078740 0.005017 -0.133858,
        0.196850 0.022217 -0.133858,
        0.196850 0.005017 -0.133858,
        0.177165 0.005017 -0.133858,
        0.196850 -0.002954 -0.133858,
        0.177165 -0.002954 -0.133858,
        0.177165 -0.021186 -0.133858,
        0.004013 -0.002497 -0.133858,
        0.003244 -0.002954 -0.133858,
        0.004013 -0.001633 -0.133858,
        0.003244 0.005017 -0.133858,
        0.005170 0.005017 -0.133858,
        0.004923 0.005000 -0.133858,
        0.004013 0.004753 -0.133858,
        0.004013 0.003696 -0.133858,
        0.004900 0.004076 -0.133858,
        0.004154 -0.001711 -0.133858,
        0.005857 0.004200 -0.133858,
        0.006632 0.004113 -0.133858,
        0.007221 0.003901 -0.133858,
        0.007766 0.003536 -0.133858,
        0.008242 0.003011 -0.133858,
        0.008814 0.000948 -0.133858,
        0.008734 0.000095 -0.133858,
        0.008520 -0.000582 -0.133858,
        0.006768 -0.002055 -0.133858,
        0.006034 -0.002137 -0.133858,
        0.007342 -0.001844 -0.133858,
        0.007825 -0.001518 -0.133858,
        0.008194 -0.001128 -0.133858,
        0.004989 -0.002021 -0.133858,
        0.008567 0.002403 -0.133858,
        0.008776 0.001560 -0.133858,
        0.005866 0.005065 -0.133858,
        0.003244 0.022217 -0.133858,
        0.006454 0.005017 -0.133858,
        0.010206 0.022217 -0.133858,
        0.009455 0.002895 -0.133858,
        0.008993 0.003631 -0.133858,
        0.010206 0.005017 -0.133858,
        0.007913 -0.002638 -0.133858,
        0.008546 -0.002233 -0.133858,
        0.010206 -0.002954 -0.133858,
        0.009137 -0.001611 -0.133858,
        0.009557 -0.000862 -0.133858,
        0.008282 0.004315 -0.133858,
        0.007534 0.004745 -0.133858,
        0.006657 0.005000 -0.133858,
        0.009794 -0.000029 -0.133858,
        0.009870 0.000883 -0.133858,
        0.009757 0.002002 -0.133858,
        0.005964 -0.002998 -0.133858,
        0.003244 -0.021186 -0.133858,
        0.005648 -0.002954 -0.133858,
        0.004852 -0.002842 -0.133858,
        0.006179 -0.003002 -0.133858,
        0.010206 -0.021186 -0.133858,
        0.006642 -0.002954 -0.133858,
        0.007150 -0.002901 -0.133858,
        0.010206 -0.108268 -0.133858,
        0.003244 -0.108268 -0.133858,
        0.010206 -0.118110 -0.133858,
        -0.048022 -0.021186 -0.133858,
        -0.009911 -0.021186 -0.133858,
        -0.177165 -0.039370 -0.133858,
        -0.177165 -0.098425 -0.133858,
        -0.078740 -0.098425 -0.133858,
        -0.078740 -0.039370 -0.133858,
        -0.187008 -0.021186 -0.133858,
        -0.196850 -0.021186 -0.133858,
        -0.196850 -0.002954 -0.133858,
        -0.187008 -0.002954 -0.133858,
        -0.048022 -0.002954 -0.133858,
        -0.009911 -0.002954 -0.133858,
        0.010543 -0.002041 -0.133858,
        0.010543 -0.002906 -0.133858,
        0.014575 -0.002906 -0.133858,
        0.013519 -0.002041 -0.133858,
        0.013519 0.004969 -0.133858,
        0.014575 0.004969 -0.133858,
        -0.001749 -0.002041 -0.133858,
        -0.001749 -0.002906 -0.133858,
        -0.002517 -0.002954 -0.133858,
        0.002476 -0.002906 -0.133858,
        -0.002517 -0.021186 -0.133858,
        0.002476 0.004969 -0.133858,
        -0.001557 0.004969 -0.133858,
        -0.002517 0.005017 -0.133858,
        -0.001557 0.004104 -0.133858,
        0.001420 0.004104 -0.133858,
        0.001420 0.001512 -0.133858,
        0.001420 0.000648 -0.133858,
        0.001420 -0.002041 -0.133858,
        -0.001365 0.000648 -0.133858,
        -0.001365 0.001512 -0.133858,
        -0.003285 -0.002906 -0.133858,
        -0.009623 0.001131 -0.133858,
        -0.009512 0.000077 -0.133858,
        -0.009230 -0.000747 -0.133858,
        -0.008778 -0.001452 -0.133858,
        -0.008130 -0.002072 -0.133858,
        -0.007308 -0.002550 -0.133858,
        -0.006400 -0.002820 -0.133858,
        -0.005426 -0.002906 -0.133858,
        -0.003285 0.004969 -0.133858,
        -0.005507 0.004969 -0.133858,
        -0.009911 0.005017 -0.133858,
        -0.006645 0.004847 -0.133858,
        -0.007566 0.004524 -0.133858,
        -0.008423 0.003949 -0.133858,
        -0.008431 0.003942 -0.133858,
        -0.008988 0.003325 -0.133858,
        -0.009354 0.002648 -0.133858,
        -0.009565 0.001872 -0.133858,
        -0.015356 -0.000697 -0.133858,
        -0.012103 -0.000697 -0.133858,
        -0.011351 -0.002906 -0.133858,
        -0.010199 -0.002906 -0.133858,
        -0.016152 -0.002906 -0.133858,
        -0.017305 -0.002906 -0.133858,
        -0.014232 0.004969 -0.133858,
        -0.196850 0.005017 -0.133858,
        -0.187008 0.005017 -0.133858,
        -0.048022 0.005017 -0.133858,
        -0.013176 0.004969 -0.133858,
        -0.048022 0.022217 -0.133858,
        -0.009911 0.022217 -0.133858,
        -0.002517 0.022217 -0.133858,
        -0.048022 0.118110 -0.133858,
        -0.009911 0.118110 -0.133858,
        -0.002517 0.118110 -0.133858,
        0.003244 0.118110 -0.133858,
        0.010206 0.118110 -0.133858,
        -0.078740 0.039370 -0.133858,
        -0.177165 0.039370 -0.133858,
        -0.177165 0.098425 -0.133858,
        -0.078740 0.098425 -0.133858,
        -0.196850 0.114173 -0.003937,
        -0.196850 -0.047244 -0.094488,
        -0.196850 -0.114173 -0.003937,
        -0.196850 -0.086614 -0.094488,
        -0.196850 -0.047244 -0.114173,
        -0.196850 0.047244 -0.094488,
        -0.196850 0.086614 -0.094488,
        -0.196850 0.086614 -0.114173,
        -0.196850 0.047244 -0.114173,
        -0.196850 -0.086614 -0.114173,
        0.029528 -0.118110 -0.114173,
        -0.192913 -0.118110 -0.003937,
        0.108268 -0.118110 -0.094488,
        0.192913 -0.118110 -0.003937,
        0.167323 -0.118110 -0.094488,
        0.167323 -0.118110 -0.114173,
        0.108268 -0.118110 -0.114173,
        -0.088583 -0.118110 -0.094488,
        -0.147638 -0.118110 -0.094488,
        -0.147638 -0.118110 -0.114173,
        -0.088583 -0.118110 -0.114173,
        -0.029528 -0.118110 -0.114173,
        -0.029528 -0.118110 -0.094488,
        0.029528 -0.118110 -0.094488,
        0.196850 -0.086614 -0.094488,
        0.196850 -0.047244 -0.094488,
        0.196850 -0.114173 -0.003937,
        0.196850 0.047244 -0.094488,
        0.196850 0.114173 -0.003937,
        0.196850 0.086614 -0.094488,
        0.196850 0.086614 -0.114173,
        0.196850 0.047244 -0.114173,
        0.196850 -0.047244 -0.114173,
        0.196850 -0.086614 -0.114173,
        -0.147638 0.118110 -0.094488,
        -0.192913 0.118110 -0.003937,
        -0.088583 0.118110 -0.094488,
        0.192913 0.118110 -0.003937,
        -0.029528 0.118110 -0.114173,
        0.108268 0.118110 -0.114173,
        0.167323 0.118110 -0.114173,
        0.167323 0.118110 -0.094488,
        0.108268 0.118110 -0.094488,
        0.029528 0.118110 -0.114173,
        0.029528 0.118110 -0.094488,
        -0.029528 0.118110 -0.094488,
        -0.088583 0.118110 -0.114173,
        -0.147638 0.118110 -0.114173,
        0.192913 0.114173 0.000000,
        -0.106145 0.072426 0.000000,
        0.192913 -0.114173 0.000000,
        -0.106677 0.068387 0.000000,
        -0.108236 0.064622 0.000000,
        -0.121753 0.056819 0.000000,
        -0.125793 0.057350 0.000000,
        -0.192913 -0.114173 0.000000,
        -0.129557 0.058909 0.000000,
        -0.136829 0.068387 0.000000,
        -0.192913 0.114173 0.000000,
        -0.135270 0.064622 0.000000,
        -0.132790 0.061390 0.000000,
        -0.110717 0.061390 0.000000,
        -0.113949 0.058909 0.000000,
        -0.117713 0.057350 0.000000,
        -0.137361 0.072426 0.000000,
        -0.136829 0.076466 0.000000,
        -0.135270 0.080230 0.000000,
        -0.132790 0.083463 0.000000,
        -0.129557 0.085943 0.000000,
        -0.125793 0.087502 0.000000,
        -0.121753 0.088034 0.000000,
        -0.117713 0.087502 0.000000,
        -0.113949 0.085943 0.000000,
        -0.110717 0.083463 0.000000,
        -0.108236 0.080230 0.000000,
        -0.106677 0.076466 0.000000,
      ]
    }
    coordIndex [
      0, 1, 2, -1,
      3, 0, 4, -1,
      5, 3, 6, -1,
      7, 5, 8, -1,
      9, 10, 11, -1,
      12, 13, 14, -1,
      15, 16, 17, -1,
      17, 18, 15, -1,
      15, 18, 19, -1,
      15, 19, 20, -1,
      20, 21, 15, -1,
      15, 21, 22, -1,
      15, 22, 23, -1,
      23, 22, 24, -1,
      25, 26, 27, -1,
      27, 26, 28, -1,
      27, 28, 29, -1,
      30, 31, 27, -1,
      27, 31, 32, -1,
      32, 33, 27, -1,
      27, 33, 34, -1,
      27, 34, 25, -1,
      11, 35, 9, -1,
      9, 35, 36, -1,
      9, 36, 37, -1,
      37, 38, 9, -1,
      9, 38, 39, -1,
      9, 39, 40, -1,
      40, 39, 41, -1,
      2, 1, 42, -1,
      42, 1, 43, -1,
      42, 43, 44, -1,
      45, 46, 47, -1,
      45, 47, 48, -1,
      44, 43, 47, -1,
      47, 43, 49, -1,
      47, 49, 48, -1,
      50, 51, 17, -1,
      17, 51, 18, -1,
      18, 51, 52, -1,
      18, 52, 53, -1,
      17, 54, 50, -1,
      50, 54, 55, -1,
      50, 55, 56, -1,
      56, 55, 57, -1,
      56, 57, 58, -1,
      28, 59, 29, -1,
      29, 59, 60, -1,
      29, 60, 61, -1,
      61, 60, 62, -1,
      61, 62, 63, -1,
      63, 62, 53, -1,
      63, 53, 64, -1,
      64, 53, 52, -1,
      65, 66, 67, -1,
      67, 66, 68, -1,
      68, 69, 70, -1,
      70, 71, 68, -1,
      68, 71, 72, -1,
      68, 72, 67, -1,
      67, 72, 73, -1,
      67, 73, 74, -1,
      74, 73, 75, -1,
      74, 75, 76, -1,
      76, 77, 74, -1,
      74, 77, 78, -1,
      74, 78, 79, -1,
      80, 81, 74, -1,
      74, 81, 82, -1,
      83, 84, 85, -1,
      85, 84, 86, -1,
      82, 87, 74, -1,
      74, 87, 86, -1,
      74, 86, 88, -1,
      88, 86, 84, -1,
      79, 89, 74, -1,
      74, 89, 90, -1,
      74, 90, 80, -1,
      91, 92, 93, -1,
      93, 92, 94, -1,
      95, 96, 97, -1,
      98, 99, 100, -1,
      100, 99, 101, -1,
      100, 101, 102, -1,
      96, 103, 97, -1,
      97, 103, 104, -1,
      97, 104, 105, -1,
      102, 106, 100, -1,
      100, 106, 107, -1,
      100, 107, 97, -1,
      97, 107, 108, -1,
      97, 108, 95, -1,
      109, 110, 111, -1,
      111, 110, 66, -1,
      111, 66, 112, -1,
      112, 66, 65, -1,
      109, 113, 114, -1,
      114, 113, 115, -1,
      114, 115, 100, -1,
      100, 115, 116, -1,
      100, 116, 98, -1,
      109, 114, 110, -1,
      110, 114, 117, -1,
      110, 117, 118, -1,
      118, 117, 119, -1,
      118, 119, 7, -1,
      3, 4, 6, -1,
      6, 4, 120, -1,
      6, 120, 121, -1,
      122, 123, 2, -1,
      2, 123, 124, -1,
      0, 2, 4, -1,
      4, 2, 124, -1,
      4, 124, 120, -1,
      120, 124, 125, -1,
      120, 125, 126, -1,
      42, 127, 2, -1,
      2, 127, 126, -1,
      2, 126, 122, -1,
      122, 126, 125, -1,
      127, 128, 126, -1,
      126, 128, 129, -1,
      126, 129, 120, -1,
      120, 129, 130, -1,
      120, 130, 121, -1,
      121, 130, 131, -1,
      97, 132, 100, -1,
      100, 132, 133, -1,
      100, 133, 134, -1,
      135, 132, 136, -1,
      136, 132, 97, -1,
      136, 97, 137, -1,
      137, 97, 57, -1,
      137, 57, 134, -1,
      134, 57, 55, -1,
      134, 55, 100, -1,
      100, 55, 54, -1,
      100, 54, 114, -1,
      114, 54, 17, -1,
      114, 17, 117, -1,
      117, 17, 16, -1,
      117, 16, 119, -1,
      138, 139, 140, -1,
      140, 139, 141, -1,
      7, 8, 118, -1,
      118, 8, 142, -1,
      118, 142, 110, -1,
      110, 142, 140, -1,
      110, 140, 66, -1,
      66, 140, 141, -1,
      66, 141, 68, -1,
      141, 143, 68, -1,
      68, 143, 144, -1,
      68, 144, 145, -1,
      145, 144, 146, -1,
      146, 147, 148, -1,
      149, 150, 151, -1,
      151, 150, 138, -1,
      151, 138, 152, -1,
      148, 152, 146, -1,
      146, 152, 138, -1,
      146, 138, 145, -1,
      145, 138, 140, -1,
      145, 140, 153, -1,
      131, 154, 155, -1,
      155, 156, 131, -1,
      131, 156, 157, -1,
      131, 157, 158, -1,
      158, 159, 131, -1,
      131, 159, 160, -1,
      131, 160, 161, -1,
      153, 162, 145, -1,
      145, 162, 163, -1,
      145, 163, 164, -1,
      164, 163, 165, -1,
      165, 166, 164, -1,
      164, 166, 167, -1,
      164, 167, 168, -1,
      168, 169, 164, -1,
      164, 169, 170, -1,
      164, 170, 171, -1,
      5, 6, 8, -1,
      8, 6, 121, -1,
      8, 121, 142, -1,
      142, 121, 131, -1,
      142, 131, 140, -1,
      140, 131, 161, -1,
      140, 161, 153, -1,
      172, 173, 174, -1,
      174, 175, 131, -1,
      131, 175, 164, -1,
      131, 164, 154, -1,
      154, 164, 171, -1,
      172, 174, 176, -1,
      176, 174, 131, -1,
      176, 131, 177, -1,
      177, 131, 130, -1,
      177, 130, 178, -1,
      128, 179, 129, -1,
      129, 179, 180, -1,
      129, 180, 130, -1,
      130, 180, 181, -1,
      130, 181, 178, -1,
      178, 181, 164, -1,
      178, 164, 182, -1,
      182, 164, 175, -1,
      105, 93, 97, -1,
      97, 93, 94, -1,
      97, 94, 57, -1,
      57, 94, 14, -1,
      57, 14, 58, -1,
      58, 14, 13, -1,
      179, 35, 180, -1,
      180, 35, 11, -1,
      180, 11, 181, -1,
      181, 11, 183, -1,
      181, 183, 164, -1,
      164, 183, 184, -1,
      164, 184, 145, -1,
      145, 184, 185, -1,
      145, 185, 68, -1,
      68, 185, 92, -1,
      68, 92, 69, -1,
      69, 92, 91, -1,
      183, 186, 184, -1,
      184, 186, 187, -1,
      184, 187, 185, -1,
      185, 187, 188, -1,
      185, 188, 92, -1,
      92, 188, 189, -1,
      92, 189, 94, -1,
      94, 189, 190, -1,
      94, 190, 14, -1,
      14, 190, 30, -1,
      14, 30, 12, -1,
      12, 30, 27, -1,
      191, 183, 192, -1,
      192, 183, 11, -1,
      192, 11, 193, -1,
      193, 11, 10, -1,
      193, 10, 194, -1,
      194, 10, 186, -1,
      194, 186, 191, -1,
      191, 186, 183, -1,
      195, 196, 197, -1,
      197, 196, 198, -1,
      199, 196, 200, -1,
      200, 196, 195, -1,
      200, 195, 201, -1,
      201, 195, 36, -1,
      201, 36, 202, -1,
      202, 36, 203, -1,
      203, 36, 35, -1,
      203, 35, 200, -1,
      35, 179, 200, -1,
      200, 179, 128, -1,
      200, 128, 199, -1,
      199, 128, 127, -1,
      199, 127, 204, -1,
      204, 127, 42, -1,
      204, 42, 198, -1,
      198, 42, 44, -1,
      198, 44, 197, -1,
      119, 16, 205, -1,
      206, 207, 208, -1,
      208, 207, 209, -1,
      208, 209, 15, -1,
      15, 209, 210, -1,
      15, 210, 211, -1,
      212, 206, 213, -1,
      213, 206, 43, -1,
      213, 43, 214, -1,
      214, 43, 1, -1,
      214, 1, 215, -1,
      0, 3, 216, -1,
      216, 3, 5, -1,
      216, 5, 205, -1,
      205, 5, 7, -1,
      205, 7, 119, -1,
      1, 0, 215, -1,
      215, 0, 216, -1,
      215, 216, 212, -1,
      212, 216, 217, -1,
      212, 217, 206, -1,
      206, 217, 218, -1,
      206, 218, 207, -1,
      207, 218, 205, -1,
      207, 205, 211, -1,
      211, 205, 16, -1,
      211, 16, 15, -1,
      219, 220, 221, -1,
      221, 220, 222, -1,
      221, 222, 223, -1,
      223, 222, 224, -1,
      223, 224, 28, -1,
      28, 224, 225, -1,
      28, 225, 59, -1,
      59, 225, 226, -1,
      59, 226, 60, -1,
      60, 226, 222, -1,
      60, 222, 62, -1,
      62, 222, 220, -1,
      62, 220, 53, -1,
      53, 220, 227, -1,
      53, 227, 18, -1,
      18, 227, 228, -1,
      18, 228, 19, -1,
      19, 228, 219, -1,
      19, 219, 221, -1,
      229, 230, 231, -1,
      231, 230, 232, -1,
      187, 186, 233, -1,
      234, 235, 31, -1,
      31, 235, 236, -1,
      31, 236, 232, -1,
      232, 236, 237, -1,
      31, 30, 234, -1,
      234, 30, 238, -1,
      234, 238, 237, -1,
      237, 238, 239, -1,
      237, 239, 232, -1,
      232, 239, 240, -1,
      232, 240, 231, -1,
      231, 240, 233, -1,
      231, 233, 241, -1,
      241, 233, 186, -1,
      241, 186, 242, -1,
      242, 186, 10, -1,
      242, 10, 229, -1,
      229, 10, 9, -1,
      229, 9, 230, -1,
      30, 190, 238, -1,
      238, 190, 189, -1,
      238, 189, 233, -1,
      233, 189, 188, -1,
      233, 188, 187, -1,
      243, 244, 245, -1,
      245, 244, 246, -1,
      245, 246, 247, -1,
      248, 249, 250, -1,
      250, 249, 251, -1,
      252, 253, 254, -1,
      254, 253, 250, -1,
      254, 250, 255, -1,
      255, 250, 251, -1,
      247, 256, 245, -1,
      245, 256, 257, -1,
      245, 257, 250, -1,
      250, 257, 258, -1,
      250, 258, 248, -1,
      252, 259, 253, -1,
      253, 259, 260, -1,
      253, 260, 261, -1,
      261, 262, 253, -1,
      253, 262, 263, -1,
      253, 263, 264, -1,
      264, 265, 253, -1,
      253, 265, 266, -1,
      253, 266, 243, -1,
      243, 266, 267, -1,
      243, 267, 268, -1,
      268, 269, 243, -1,
      243, 269, 270, -1,
      243, 270, 244, -1,
    ]
  }
}

Shape {
  appearance Appearance {
    material Material {
      diffuseColor 1.0000 1.0000 1.0000
      specularColor 0.5020 0.5020 0.5020
      ambientIntensity 0.2
      transparency 0.0000
      shininess 0.5
    }
  }
  geometry IndexedFaceSet {
    ccw TRUE
    solid FALSE
    coord DEF co Coordinate {
      point [
        0.078740 0.098425 -0.133858,
        0.078740 0.022217 -0.133858,
        0.177165 0.098425 -0.133858,
        0.177165 0.022217 -0.133858,
        0.078740 -0.021186 -0.133858,
        0.078740 -0.098425 -0.133858,
        0.177165 -0.098425 -0.133858,
        0.078740 -0.002954 -0.133858,
        0.078740 0.005017 -0.133858,
        0.177165 0.005017 -0.133858,
        0.177165 -0.002954 -0.133858,
        0.177165 -0.021186 -0.133858,
        -0.177165 -0.039370 -0.133858,
        -0.177165 -0.098425 -0.133858,
        -0.078740 -0.098425 -0.133858,
        -0.078740 -0.039370 -0.133858,
        -0.078740 0.039370 -0.133858,
        -0.177165 0.039370 -0.133858,
        -0.177165 0.098425 -0.133858,
        -0.078740 0.098425 -0.133858,
        0.177165 0.098425 -0.145669,
        0.177165 -0.098425 -0.145669,
        0.078740 -0.098425 -0.145669,
        0.078740 0.098425 -0.145669,
        -0.078740 0.039370 -0.145669,
        -0.078740 0.098425 -0.145669,
        -0.177165 0.039370 -0.145669,
        -0.177165 0.098425 -0.145669,
        -0.078740 -0.098425 -0.145669,
        -0.078740 -0.039370 -0.145669,
        -0.177165 -0.098425 -0.145669,
        -0.177165 -0.039370 -0.145669,
      ]
    }
    coordIndex [
      20, 2, 3, -1,
      3, 9, 20, -1,
      20, 9, 10, -1,
      20, 10, 21, -1,
      21, 10, 11, -1,
      21, 11, 6, -1,
      22, 21, 5, -1,
      5, 21, 6, -1,
      1, 0, 23, -1,
      5, 4, 22, -1,
      22, 4, 7, -1,
      22, 7, 23, -1,
      23, 7, 8, -1,
      23, 8, 1, -1,
      20, 23, 2, -1,
      2, 23, 0, -1,
      22, 23, 21, -1,
      21, 23, 20, -1,
      24, 25, 16, -1,
      16, 25, 19, -1,
      26, 24, 17, -1,
      17, 24, 16, -1,
      27, 26, 18, -1,
      18, 26, 17, -1,
      25, 27, 19, -1,
      19, 27, 18, -1,
      26, 27, 24, -1,
      24, 27, 25, -1,
      28, 29, 14, -1,
      14, 29, 15, -1,
      30, 28, 13, -1,
      13, 28, 14, -1,
      31, 30, 12, -1,
      12, 30, 13, -1,
      29, 31, 15, -1,
      15, 31, 12, -1,
      30, 31, 28, -1,
      28, 31, 29, -1,
    ]
  }
}

Shape {
  appearance Appearance {
    material Material {
      diffuseColor 0.5020 0.5020 0.5020
      specularColor 0.2510 0.2510 0.2510
      ambientIntensity 0.2
      transparency 0.0000
      shininess 0.5
    }
  }
  geometry IndexedFaceSet {
    ccw TRUE
    solid FALSE
    coord DEF co Coordinate {
      point [
        -0.192913 0.118110 -0.133858,
        0.192913 -0.118110 -0.133858,
        0.196850 -0.114173 -0.133858,
        0.196716 -0.115192 -0.133858,
        0.196323 -0.116142 -0.133858,
        0.195697 -0.116957 -0.133858,
        0.193932 -0.117976 -0.133858,
        0.194882 -0.117583 -0.133858,
        0.196323 0.116142 -0.133858,
        0.196716 0.115192 -0.133858,
        0.196850 0.114173 -0.133858,
        0.192913 0.118110 -0.133858,
        0.193932 0.117976 -0.133858,
        0.194882 0.117583 -0.133858,
        0.195697 0.116957 -0.133858,
        -0.196850 0.114173 -0.133858,
        -0.196716 0.115192 -0.133858,
        -0.196323 0.116142 -0.133858,
        -0.195697 0.116957 -0.133858,
        -0.193932 0.117976 -0.133858,
        -0.194882 0.117583 -0.133858,
        -0.192913 -0.118110 -0.133858,
        -0.196850 -0.114173 -0.133858,
        -0.195697 -0.116957 -0.133858,
        -0.196323 -0.116142 -0.133858,
        -0.196716 -0.115192 -0.133858,
        -0.194882 -0.117583 -0.133858,
        -0.193932 -0.117976 -0.133858,
        -0.196850 0.114173 -0.003937,
        -0.196850 -0.114173 -0.003937,
        -0.192913 -0.118110 -0.003937,
        0.192913 -0.118110 -0.003937,
        0.196850 -0.114173 -0.003937,
        0.196850 0.114173 -0.003937,
        -0.192913 0.118110 -0.003937,
        0.192913 0.118110 -0.003937,
        0.192913 0.114173 0.000000,
        0.192913 -0.114173 0.000000,
        -0.192913 -0.114173 0.000000,
        -0.192913 0.114173 0.000000,
        -0.196716 0.115192 -0.003937,
        -0.196323 0.116142 -0.003937,
        -0.195697 0.116957 -0.003937,
        -0.194882 0.117583 -0.003937,
        -0.193932 0.117976 -0.003937,
        -0.192913 0.117976 -0.002918,
        0.192913 0.117976 -0.002918,
        -0.192913 0.117583 -0.001969,
        0.192913 0.117583 -0.001969,
        -0.192913 0.116957 -0.001153,
        0.192913 0.116957 -0.001153,
        -0.192913 0.116142 -0.000528,
        0.192913 0.116142 -0.000528,
        -0.192913 0.115192 -0.000134,
        0.192913 0.115192 -0.000134,
        0.193932 0.117976 -0.003937,
        0.194882 0.117583 -0.003937,
        0.195697 0.116957 -0.003937,
        0.196323 0.116142 -0.003937,
        0.196716 0.115192 -0.003937,
        -0.196716 0.114173 -0.002918,
        -0.196587 0.115157 -0.002918,
        -0.194618 0.115157 -0.000528,
        -0.193796 0.114683 -0.000134,
        -0.193634 0.114894 -0.000134,
        -0.193177 0.115157 -0.000134,
        -0.193898 0.114437 -0.000134,
        -0.194815 0.114683 -0.000528,
        -0.195602 0.114894 -0.001153,
        -0.193932 0.114173 -0.000134,
        -0.194306 0.115565 -0.000528,
        -0.193423 0.115056 -0.000134,
        -0.193898 0.115878 -0.000528,
        -0.193423 0.116075 -0.000528,
        -0.194882 0.114173 -0.000528,
        -0.195697 0.114173 -0.001153,
        -0.196323 0.114173 -0.001969,
        -0.195324 0.115565 -0.001153,
        -0.194882 0.116142 -0.001153,
        -0.194306 0.116584 -0.001153,
        -0.193634 0.116862 -0.001153,
        -0.196207 0.115056 -0.001969,
        -0.195866 0.115878 -0.001969,
        -0.195324 0.116584 -0.001969,
        -0.194618 0.117126 -0.001969,
        -0.193796 0.117467 -0.001969,
        -0.196207 0.116075 -0.002918,
        -0.195602 0.116862 -0.002918,
        -0.194815 0.117467 -0.002918,
        -0.193898 0.117846 -0.002918,
        0.193898 0.117846 -0.002918,
        0.193898 0.115878 -0.000528,
        0.193423 0.115056 -0.000134,
        0.193634 0.114894 -0.000134,
        0.193932 0.114173 -0.000134,
        0.193898 0.114437 -0.000134,
        0.193177 0.115157 -0.000134,
        0.193423 0.116075 -0.000528,
        0.193634 0.116862 -0.001153,
        0.194306 0.115565 -0.000528,
        0.193796 0.114683 -0.000134,
        0.194618 0.115157 -0.000528,
        0.194815 0.114683 -0.000528,
        0.194882 0.114173 -0.000528,
        0.194306 0.116584 -0.001153,
        0.194882 0.116142 -0.001153,
        0.195324 0.115565 -0.001153,
        0.195602 0.114894 -0.001153,
        0.195697 0.114173 -0.001153,
        0.193796 0.117467 -0.001969,
        0.194618 0.117126 -0.001969,
        0.195324 0.116584 -0.001969,
        0.195866 0.115878 -0.001969,
        0.196207 0.115056 -0.001969,
        0.196323 0.114173 -0.001969,
        0.194815 0.117467 -0.002918,
        0.195602 0.116862 -0.002918,
        0.196207 0.116075 -0.002918,
        0.196587 0.115157 -0.002918,
        0.196716 0.114173 -0.002918,
        -0.193932 -0.117976 -0.003937,
        -0.194882 -0.117583 -0.003937,
        -0.195697 -0.116957 -0.003937,
        -0.196323 -0.116142 -0.003937,
        -0.196716 -0.115192 -0.003937,
        -0.196716 -0.114173 -0.002918,
        -0.196323 -0.114173 -0.001969,
        -0.195697 -0.114173 -0.001153,
        -0.194882 -0.114173 -0.000528,
        -0.193932 -0.114173 -0.000134,
        0.196716 -0.114173 -0.002918,
        0.196323 -0.114173 -0.001969,
        0.195697 -0.114173 -0.001153,
        0.194882 -0.114173 -0.000528,
        0.193932 -0.114173 -0.000134,
        0.196716 -0.115192 -0.003937,
        0.196323 -0.116142 -0.003937,
        0.195697 -0.116957 -0.003937,
        0.194882 -0.117583 -0.003937,
        0.193932 -0.117976 -0.003937,
        -0.192913 -0.117976 -0.002918,
        -0.193898 -0.117846 -0.002918,
        -0.193898 -0.115878 -0.000528,
        -0.193423 -0.115056 -0.000134,
        -0.193634 -0.114894 -0.000134,
        -0.193898 -0.114437 -0.000134,
        -0.193177 -0.115157 -0.000134,
        -0.193423 -0.116075 -0.000528,
        -0.193634 -0.116862 -0.001153,
        -0.192913 -0.115192 -0.000134,
        -0.194306 -0.115565 -0.000528,
        -0.193796 -0.114683 -0.000134,
        -0.194618 -0.115157 -0.000528,
        -0.194815 -0.114683 -0.000528,
        -0.192913 -0.116142 -0.000528,
        -0.192913 -0.116957 -0.001153,
        -0.192913 -0.117583 -0.001969,
        -0.194306 -0.116584 -0.001153,
        -0.194882 -0.116142 -0.001153,
        -0.195324 -0.115565 -0.001153,
        -0.195602 -0.114894 -0.001153,
        -0.193796 -0.117467 -0.001969,
        -0.194618 -0.117126 -0.001969,
        -0.195324 -0.116584 -0.001969,
        -0.195866 -0.115878 -0.001969,
        -0.196207 -0.115056 -0.001969,
        -0.194815 -0.117467 -0.002918,
        -0.195602 -0.116862 -0.002918,
        -0.196207 -0.116075 -0.002918,
        -0.196587 -0.115157 -0.002918,
        0.196587 -0.115157 -0.002918,
        0.194618 -0.115157 -0.000528,
        0.193796 -0.114683 -0.000134,
        0.193634 -0.114894 -0.000134,
        0.192913 -0.115192 -0.000134,
        0.193177 -0.115157 -0.000134,
        0.193898 -0.114437 -0.000134,
        0.194815 -0.114683 -0.000528,
        0.195602 -0.114894 -0.001153,
        0.194306 -0.115565 -0.000528,
        0.193423 -0.115056 -0.000134,
        0.193898 -0.115878 -0.000528,
        0.193423 -0.116075 -0.000528,
        0.192913 -0.116142 -0.000528,
        0.195324 -0.115565 -0.001153,
        0.194882 -0.116142 -0.001153,
        0.194306 -0.116584 -0.001153,
        0.193634 -0.116862 -0.001153,
        0.192913 -0.116957 -0.001153,
        0.196207 -0.115056 -0.001969,
        0.195866 -0.115878 -0.001969,
        0.195324 -0.116584 -0.001969,
        0.194618 -0.117126 -0.001969,
        0.193796 -0.117467 -0.001969,
        0.192913 -0.117583 -0.001969,
        0.196207 -0.116075 -0.002918,
        0.195602 -0.116862 -0.002918,
        0.194815 -0.117467 -0.002918,
        0.193898 -0.117846 -0.002918,
        0.192913 -0.117976 -0.002918,
      ]
    }
    coordIndex [
      15, 28, 40, -1,
      15, 40, 16, -1,
      16, 40, 41, -1,
      16, 41, 17, -1,
      17, 41, 42, -1,
      17, 42, 18, -1,
      18, 42, 43, -1,
      18, 43, 20, -1,
      20, 43, 44, -1,
      20, 44, 19, -1,
      19, 44, 34, -1,
      19, 34, 0, -1,
      35, 34, 45, -1,
      35, 45, 46, -1,
      46, 45, 47, -1,
      46, 47, 48, -1,
      48, 47, 49, -1,
      48, 49, 50, -1,
      50, 49, 51, -1,
      50, 51, 52, -1,
      52, 51, 53, -1,
      52, 53, 54, -1,
      54, 53, 39, -1,
      54, 39, 36, -1,
      11, 35, 55, -1,
      11, 55, 12, -1,
      12, 55, 56, -1,
      12, 56, 13, -1,
      13, 56, 57, -1,
      13, 57, 14, -1,
      14, 57, 58, -1,
      14, 58, 8, -1,
      8, 58, 59, -1,
      8, 59, 9, -1,
      9, 59, 33, -1,
      9, 33, 10, -1,
      28, 60, 61, -1,
      62, 63, 64, -1,
      39, 53, 65, -1,
      64, 63, 39, -1,
      66, 39, 63, -1,
      66, 63, 67, -1,
      67, 63, 62, -1,
      67, 62, 68, -1,
      69, 39, 66, -1,
      70, 71, 72, -1,
      72, 71, 65, -1,
      72, 65, 73, -1,
      73, 65, 53, -1,
      73, 53, 51, -1,
      69, 66, 74, -1,
      74, 66, 67, -1,
      74, 67, 75, -1,
      75, 67, 68, -1,
      75, 68, 76, -1,
      77, 70, 78, -1,
      78, 70, 72, -1,
      78, 72, 79, -1,
      79, 72, 73, -1,
      79, 73, 80, -1,
      80, 73, 51, -1,
      80, 51, 49, -1,
      81, 77, 82, -1,
      82, 77, 78, -1,
      82, 78, 83, -1,
      83, 78, 79, -1,
      83, 79, 84, -1,
      84, 79, 80, -1,
      84, 80, 85, -1,
      85, 80, 49, -1,
      85, 49, 47, -1,
      60, 81, 61, -1,
      61, 81, 82, -1,
      61, 82, 86, -1,
      86, 82, 83, -1,
      86, 83, 87, -1,
      87, 83, 84, -1,
      87, 84, 88, -1,
      88, 84, 85, -1,
      88, 85, 89, -1,
      89, 85, 47, -1,
      89, 47, 45, -1,
      28, 61, 40, -1,
      40, 61, 86, -1,
      40, 86, 41, -1,
      41, 86, 87, -1,
      41, 87, 42, -1,
      42, 87, 88, -1,
      42, 88, 43, -1,
      43, 88, 89, -1,
      43, 89, 44, -1,
      44, 89, 45, -1,
      44, 45, 34, -1,
      71, 39, 65, -1,
      60, 76, 81, -1,
      81, 76, 68, -1,
      81, 68, 77, -1,
      77, 68, 62, -1,
      77, 62, 70, -1,
      70, 62, 64, -1,
      70, 64, 71, -1,
      71, 64, 39, -1,
      35, 46, 90, -1,
      91, 92, 93, -1,
      36, 94, 95, -1,
      93, 92, 36, -1,
      96, 36, 92, -1,
      96, 92, 97, -1,
      97, 92, 91, -1,
      97, 91, 98, -1,
      54, 36, 96, -1,
      99, 100, 101, -1,
      101, 100, 95, -1,
      101, 95, 102, -1,
      102, 95, 94, -1,
      102, 94, 103, -1,
      54, 96, 52, -1,
      52, 96, 97, -1,
      52, 97, 50, -1,
      50, 97, 98, -1,
      50, 98, 48, -1,
      104, 99, 105, -1,
      105, 99, 101, -1,
      105, 101, 106, -1,
      106, 101, 102, -1,
      106, 102, 107, -1,
      107, 102, 103, -1,
      107, 103, 108, -1,
      109, 104, 110, -1,
      110, 104, 105, -1,
      110, 105, 111, -1,
      111, 105, 106, -1,
      111, 106, 112, -1,
      112, 106, 107, -1,
      112, 107, 113, -1,
      113, 107, 108, -1,
      113, 108, 114, -1,
      46, 109, 90, -1,
      90, 109, 110, -1,
      90, 110, 115, -1,
      115, 110, 111, -1,
      115, 111, 116, -1,
      116, 111, 112, -1,
      116, 112, 117, -1,
      117, 112, 113, -1,
      117, 113, 118, -1,
      118, 113, 114, -1,
      118, 114, 119, -1,
      35, 90, 55, -1,
      55, 90, 115, -1,
      55, 115, 56, -1,
      56, 115, 116, -1,
      56, 116, 57, -1,
      57, 116, 117, -1,
      57, 117, 58, -1,
      58, 117, 118, -1,
      58, 118, 59, -1,
      59, 118, 119, -1,
      59, 119, 33, -1,
      100, 36, 95, -1,
      46, 48, 109, -1,
      109, 48, 98, -1,
      109, 98, 104, -1,
      104, 98, 91, -1,
      104, 91, 99, -1,
      99, 91, 93, -1,
      99, 93, 100, -1,
      100, 93, 36, -1,
      21, 30, 120, -1,
      21, 120, 27, -1,
      27, 120, 121, -1,
      27, 121, 26, -1,
      26, 121, 122, -1,
      26, 122, 23, -1,
      23, 122, 123, -1,
      23, 123, 24, -1,
      24, 123, 124, -1,
      24, 124, 25, -1,
      25, 124, 29, -1,
      25, 29, 22, -1,
      28, 29, 125, -1,
      28, 125, 60, -1,
      60, 125, 126, -1,
      60, 126, 76, -1,
      76, 126, 127, -1,
      76, 127, 75, -1,
      75, 127, 128, -1,
      75, 128, 74, -1,
      74, 128, 129, -1,
      74, 129, 69, -1,
      69, 129, 38, -1,
      69, 38, 39, -1,
      32, 33, 119, -1,
      32, 119, 130, -1,
      130, 119, 114, -1,
      130, 114, 131, -1,
      131, 114, 108, -1,
      131, 108, 132, -1,
      132, 108, 103, -1,
      132, 103, 133, -1,
      133, 103, 94, -1,
      133, 94, 134, -1,
      134, 94, 36, -1,
      134, 36, 37, -1,
      2, 32, 135, -1,
      2, 135, 3, -1,
      3, 135, 136, -1,
      3, 136, 4, -1,
      4, 136, 137, -1,
      4, 137, 5, -1,
      5, 137, 138, -1,
      5, 138, 7, -1,
      7, 138, 139, -1,
      7, 139, 6, -1,
      6, 139, 31, -1,
      6, 31, 1, -1,
      30, 140, 141, -1,
      142, 143, 144, -1,
      38, 129, 145, -1,
      144, 143, 38, -1,
      146, 38, 143, -1,
      146, 143, 147, -1,
      147, 143, 142, -1,
      147, 142, 148, -1,
      149, 38, 146, -1,
      150, 151, 152, -1,
      152, 151, 145, -1,
      152, 145, 153, -1,
      153, 145, 129, -1,
      153, 129, 128, -1,
      149, 146, 154, -1,
      154, 146, 147, -1,
      154, 147, 155, -1,
      155, 147, 148, -1,
      155, 148, 156, -1,
      157, 150, 158, -1,
      158, 150, 152, -1,
      158, 152, 159, -1,
      159, 152, 153, -1,
      159, 153, 160, -1,
      160, 153, 128, -1,
      160, 128, 127, -1,
      161, 157, 162, -1,
      162, 157, 158, -1,
      162, 158, 163, -1,
      163, 158, 159, -1,
      163, 159, 164, -1,
      164, 159, 160, -1,
      164, 160, 165, -1,
      165, 160, 127, -1,
      165, 127, 126, -1,
      140, 161, 141, -1,
      141, 161, 162, -1,
      141, 162, 166, -1,
      166, 162, 163, -1,
      166, 163, 167, -1,
      167, 163, 164, -1,
      167, 164, 168, -1,
      168, 164, 165, -1,
      168, 165, 169, -1,
      169, 165, 126, -1,
      169, 126, 125, -1,
      30, 141, 120, -1,
      120, 141, 166, -1,
      120, 166, 121, -1,
      121, 166, 167, -1,
      121, 167, 122, -1,
      122, 167, 168, -1,
      122, 168, 123, -1,
      123, 168, 169, -1,
      123, 169, 124, -1,
      124, 169, 125, -1,
      124, 125, 29, -1,
      151, 38, 145, -1,
      140, 156, 161, -1,
      161, 156, 148, -1,
      161, 148, 157, -1,
      157, 148, 142, -1,
      157, 142, 150, -1,
      150, 142, 144, -1,
      150, 144, 151, -1,
      151, 144, 38, -1,
      32, 130, 170, -1,
      171, 172, 173, -1,
      37, 174, 175, -1,
      173, 172, 37, -1,
      176, 37, 172, -1,
      176, 172, 177, -1,
      177, 172, 171, -1,
      177, 171, 178, -1,
      134, 37, 176, -1,
      179, 180, 181, -1,
      181, 180, 175, -1,
      181, 175, 182, -1,
      182, 175, 174, -1,
      182, 174, 183, -1,
      134, 176, 133, -1,
      133, 176, 177, -1,
      133, 177, 132, -1,
      132, 177, 178, -1,
      132, 178, 131, -1,
      184, 179, 185, -1,
      185, 179, 181, -1,
      185, 181, 186, -1,
      186, 181, 182, -1,
      186, 182, 187, -1,
      187, 182, 183, -1,
      187, 183, 188, -1,
      189, 184, 190, -1,
      190, 184, 185, -1,
      190, 185, 191, -1,
      191, 185, 186, -1,
      191, 186, 192, -1,
      192, 186, 187, -1,
      192, 187, 193, -1,
      193, 187, 188, -1,
      193, 188, 194, -1,
      130, 189, 170, -1,
      170, 189, 190, -1,
      170, 190, 195, -1,
      195, 190, 191, -1,
      195, 191, 196, -1,
      196, 191, 192, -1,
      196, 192, 197, -1,
      197, 192, 193, -1,
      197, 193, 198, -1,
      198, 193, 194, -1,
      198, 194, 199, -1,
      32, 170, 135, -1,
      135, 170, 195, -1,
      135, 195, 136, -1,
      136, 195, 196, -1,
      136, 196, 137, -1,
      137, 196, 197, -1,
      137, 197, 138, -1,
      138, 197, 198, -1,
      138, 198, 139, -1,
      139, 198, 199, -1,
      139, 199, 31, -1,
      180, 37, 175, -1,
      130, 131, 189, -1,
      189, 131, 178, -1,
      189, 178, 184, -1,
      184, 178, 171, -1,
      184, 171, 179, -1,
      179, 171, 173, -1,
      179, 173, 180, -1,
      180, 173, 37, -1,
      30, 31, 199, -1,
      30, 199, 140, -1,
      140, 199, 194, -1,
      140, 194, 156, -1,
      156, 194, 188, -1,
      156, 188, 155, -1,
      155, 188, 183, -1,
      155, 183, 154, -1,
      154, 183, 174, -1,
      154, 174, 149, -1,
      149, 174, 37, -1,
      149, 37, 38, -1,
    ]
  }
}

Shape {
  appearance Appearance {
    material Material {
      diffuseColor 1.0000 1.0000 0.0000
      specularColor 0.5020 0.5020 0.0000
      ambientIntensity 0.2
      transparency 0.0000
      shininess 0.5
    }
  }
  geometry IndexedFaceSet {
    ccw TRUE
    solid FALSE
    coord DEF co Coordinate {
      point [
        -0.196850 -0.047244 -0.094488,
        -0.196850 -0.086614 -0.094488,
        -0.196850 -0.047244 -0.114173,
        -0.196850 0.047244 -0.094488,
        -0.196850 0.086614 -0.094488,
        -0.196850 0.086614 -0.114173,
        -0.196850 0.047244 -0.114173,
        -0.196850 -0.086614 -0.114173,
        0.029528 -0.118110 -0.114173,
        0.108268 -0.118110 -0.094488,
        0.167323 -0.118110 -0.094488,
        0.167323 -0.118110 -0.114173,
        0.108268 -0.118110 -0.114173,
        -0.088583 -0.118110 -0.094488,
        -0.147638 -0.118110 -0.094488,
        -0.147638 -0.118110 -0.114173,
        -0.088583 -0.118110 -0.114173,
        -0.029528 -0.118110 -0.114173,
        -0.029528 -0.118110 -0.094488,
        0.029528 -0.118110 -0.094488,
        0.196850 -0.086614 -0.094488,
        0.196850 -0.047244 -0.094488,
        0.196850 0.047244 -0.094488,
        0.196850 0.086614 -0.094488,
        0.196850 0.086614 -0.114173,
        0.196850 0.047244 -0.114173,
        0.196850 -0.047244 -0.114173,
        0.196850 -0.086614 -0.114173,
        -0.147638 0.118110 -0.094488,
        -0.088583 0.118110 -0.094488,
        -0.029528 0.118110 -0.114173,
        0.108268 0.118110 -0.114173,
        0.167323 0.118110 -0.114173,
        0.167323 0.118110 -0.094488,
        0.108268 0.118110 -0.094488,
        0.029528 0.118110 -0.114173,
        0.029528 0.118110 -0.094488,
        -0.029528 0.118110 -0.094488,
        -0.088583 0.118110 -0.114173,
        -0.147638 0.118110 -0.114173,
        0.108268 -0.122047 -0.114173,
        0.108268 -0.122047 -0.094488,
        0.167323 -0.122047 -0.114173,
        0.167323 -0.122047 -0.094488,
        -0.029528 -0.122047 -0.114173,
        -0.029528 -0.122047 -0.094488,
        0.029528 -0.122047 -0.114173,
        0.029528 -0.122047 -0.094488,
        -0.088583 -0.122047 -0.094488,
        -0.088583 -0.122047 -0.114173,
        -0.147638 -0.122047 -0.094488,
        -0.147638 -0.122047 -0.114173,
        0.108268 0.122047 -0.094488,
        0.108268 0.122047 -0.114173,
        0.167323 0.122047 -0.094488,
        0.167323 0.122047 -0.114173,
        -0.029528 0.122047 -0.094488,
        -0.029528 0.122047 -0.114173,
        0.029528 0.122047 -0.094488,
        0.029528 0.122047 -0.114173,
        -0.088583 0.122047 -0.114173,
        -0.088583 0.122047 -0.094488,
        -0.147638 0.122047 -0.114173,
        -0.147638 0.122047 -0.094488,
        -0.200787 -0.047244 -0.094488,
        -0.200787 -0.086614 -0.094488,
        -0.200787 -0.047244 -0.114173,
        -0.200787 -0.086614 -0.114173,
        -0.200787 0.086614 -0.094488,
        -0.200787 0.047244 -0.094488,
        -0.200787 0.086614 -0.114173,
        -0.200787 0.047244 -0.114173,
        0.200787 -0.086614 -0.094488,
        0.200787 -0.047244 -0.094488,
        0.200787 -0.086614 -0.114173,
        0.200787 -0.047244 -0.114173,
        0.200787 0.047244 -0.094488,
        0.200787 0.086614 -0.094488,
        0.200787 0.047244 -0.114173,
        0.200787 0.086614 -0.114173,
      ]
    }
    coordIndex [
      40, 41, 12, -1,
      12, 41, 9, -1,
      42, 40, 11, -1,
      11, 40, 12, -1,
      43, 42, 10, -1,
      10, 42, 11, -1,
      41, 43, 9, -1,
      9, 43, 10, -1,
      42, 43, 40, -1,
      40, 43, 41, -1,
      44, 45, 17, -1,
      17, 45, 18, -1,
      46, 44, 8, -1,
      8, 44, 17, -1,
      47, 46, 19, -1,
      19, 46, 8, -1,
      45, 47, 18, -1,
      18, 47, 19, -1,
      46, 47, 44, -1,
      44, 47, 45, -1,
      48, 49, 13, -1,
      13, 49, 16, -1,
      50, 48, 14, -1,
      14, 48, 13, -1,
      51, 50, 15, -1,
      15, 50, 14, -1,
      49, 51, 16, -1,
      16, 51, 15, -1,
      50, 51, 48, -1,
      48, 51, 49, -1,
      52, 53, 34, -1,
      34, 53, 31, -1,
      54, 52, 33, -1,
      33, 52, 34, -1,
      55, 54, 32, -1,
      32, 54, 33, -1,
      53, 55, 31, -1,
      31, 55, 32, -1,
      54, 55, 52, -1,
      52, 55, 53, -1,
      56, 57, 37, -1,
      37, 57, 30, -1,
      58, 56, 36, -1,
      36, 56, 37, -1,
      59, 58, 35, -1,
      35, 58, 36, -1,
      57, 59, 30, -1,
      30, 59, 35, -1,
      58, 59, 56, -1,
      56, 59, 57, -1,
      60, 61, 38, -1,
      38, 61, 29, -1,
      62, 60, 39, -1,
      39, 60, 38, -1,
      63, 62, 28, -1,
      28, 62, 39, -1,
      61, 63, 29, -1,
      29, 63, 28, -1,
      62, 63, 60, -1,
      60, 63, 61, -1,
      64, 65, 0, -1,
      0, 65, 1, -1,
      66, 64, 2, -1,
      2, 64, 0, -1,
      67, 66, 7, -1,
      7, 66, 2, -1,
      65, 67, 1, -1,
      1, 67, 7, -1,
      66, 67, 64, -1,
      64, 67, 65, -1,
      68, 69, 4, -1,
      4, 69, 3, -1,
      70, 68, 5, -1,
      5, 68, 4, -1,
      71, 70, 6, -1,
      6, 70, 5, -1,
      69, 71, 3, -1,
      3, 71, 6, -1,
      70, 71, 68, -1,
      68, 71, 69, -1,
      72, 73, 20, -1,
      20, 73, 21, -1,
      74, 72, 27, -1,
      27, 72, 20, -1,
      75, 74, 26, -1,
      26, 74, 27, -1,
      73, 75, 21, -1,
      21, 75, 26, -1,
      74, 75, 72, -1,
      72, 75, 73, -1,
      76, 77, 22, -1,
      22, 77, 23, -1,
      78, 76, 25, -1,
      25, 76, 22, -1,
      79, 78, 24, -1,
      24, 78, 25, -1,
      77, 79, 23, -1,
      23, 79, 24, -1,
      78, 79, 76, -1,
      76, 79, 77, -1,
    ]
  }
}

Shape {
  appearance Appearance {
    material Material {
      diffuseColor 1.0000 1.0000 1.0000
      specularColor 0.5020 0.5020 0.5020
      ambientIntensity 0.2
      transparency 0.0000
      shininess 0.5
    }
  }
  geometry IndexedFaceSet {
    ccw TRUE
    solid FALSE
    coord DEF co Coordinate {
      point [
        0.004013 -0.002497 -0.133858,
        0.004013 -0.001633 -0.133858,
        0.005170 0.005017 -0.133858,
        0.004923 0.005000 -0.133858,
        0.004013 0.004753 -0.133858,
        0.004013 0.003696 -0.133858,
        0.004900 0.004076 -0.133858,
        0.004154 -0.001711 -0.133858,
        0.005857 0.004200 -0.133858,
        0.006632 0.004113 -0.133858,
        0.007221 0.003901 -0.133858,
        0.007766 0.003536 -0.133858,
        0.008242 0.003011 -0.133858,
        0.008814 0.000948 -0.133858,
        0.008734 0.000095 -0.133858,
        0.008520 -0.000582 -0.133858,
        0.006768 -0.002055 -0.133858,
        0.006034 -0.002137 -0.133858,
        0.007342 -0.001844 -0.133858,
        0.007825 -0.001518 -0.133858,
        0.008194 -0.001128 -0.133858,
        0.004989 -0.002021 -0.133858,
        0.008567 0.002403 -0.133858,
        0.008776 0.001560 -0.133858,
        0.005866 0.005065 -0.133858,
        0.006454 0.005017 -0.133858,
        0.009455 0.002895 -0.133858,
        0.008993 0.003631 -0.133858,
        0.007913 -0.002638 -0.133858,
        0.008546 -0.002233 -0.133858,
        0.009137 -0.001611 -0.133858,
        0.009557 -0.000862 -0.133858,
        0.008282 0.004315 -0.133858,
        0.007534 0.004745 -0.133858,
        0.006657 0.005000 -0.133858,
        0.009794 -0.000029 -0.133858,
        0.009870 0.000883 -0.133858,
        0.009757 0.002002 -0.133858,
        0.005964 -0.002998 -0.133858,
        0.005648 -0.002954 -0.133858,
        0.004852 -0.002842 -0.133858,
        0.006179 -0.003002 -0.133858,
        0.006642 -0.002954 -0.133858,
        0.007150 -0.002901 -0.133858,
        0.010543 -0.002041 -0.133858,
        0.010543 -0.002906 -0.133858,
        0.014575 -0.002906 -0.133858,
        0.013519 -0.002041 -0.133858,
        0.013519 0.004969 -0.133858,
        0.014575 0.004969 -0.133858,
        -0.001749 -0.002041 -0.133858,
        -0.001749 -0.002906 -0.133858,
        0.002476 -0.002906 -0.133858,
        0.002476 0.004969 -0.133858,
        -0.001557 0.004969 -0.133858,
        -0.001557 0.004104 -0.133858,
        0.001420 0.004104 -0.133858,
        0.001420 0.001512 -0.133858,
        0.001420 0.000648 -0.133858,
        0.001420 -0.002041 -0.133858,
        -0.001365 0.000648 -0.133858,
        -0.001365 0.001512 -0.133858,
        -0.003285 -0.002906 -0.133858,
        -0.009623 0.001131 -0.133858,
        -0.009512 0.000077 -0.133858,
        -0.009230 -0.000747 -0.133858,
        -0.008778 -0.001452 -0.133858,
        -0.008130 -0.002072 -0.133858,
        -0.007308 -0.002550 -0.133858,
        -0.006400 -0.002820 -0.133858,
        -0.005426 -0.002906 -0.133858,
        -0.003285 0.004969 -0.133858,
        -0.005507 0.004969 -0.133858,
        -0.006645 0.004847 -0.133858,
        -0.007566 0.004524 -0.133858,
        -0.008423 0.003949 -0.133858,
        -0.008431 0.003942 -0.133858,
        -0.008988 0.003325 -0.133858,
        -0.009354 0.002648 -0.133858,
        -0.009565 0.001872 -0.133858,
        -0.015356 -0.000697 -0.133858,
        -0.012103 -0.000697 -0.133858,
        -0.011351 -0.002906 -0.133858,
        -0.010199 -0.002906 -0.133858,
        -0.016152 -0.002906 -0.133858,
        -0.017305 -0.002906 -0.133858,
        -0.014232 0.004969 -0.133858,
        -0.013176 0.004969 -0.133858,
        -0.014232 0.004969 -0.133465,
        -0.017305 -0.002906 -0.133465,
        -0.016152 -0.002906 -0.133465,
        -0.015356 -0.000697 -0.133465,
        -0.012103 -0.000697 -0.133465,
        -0.011351 -0.002906 -0.133465,
        -0.010199 -0.002906 -0.133465,
        -0.013176 0.004969 -0.133465,
        -0.012369 0.000167 -0.133465,
        -0.015002 0.000167 -0.133465,
        -0.013543 0.003456 -0.133465,
        -0.013619 0.003729 -0.133465,
        -0.013669 0.004008 -0.133465,
        -0.013695 0.004008 -0.133465,
        -0.013746 0.003730 -0.133465,
        -0.013817 0.003456 -0.133465,
        -0.012369 0.000167 -0.133858,
        -0.015002 0.000167 -0.133858,
        -0.013543 0.003456 -0.133858,
        -0.013619 0.003729 -0.133858,
        -0.013669 0.004008 -0.133858,
        -0.013695 0.004008 -0.133858,
        -0.013746 0.003730 -0.133858,
        -0.013817 0.003456 -0.133858,
        -0.005426 -0.002906 -0.133465,
        -0.003285 -0.002906 -0.133465,
        -0.003285 0.004969 -0.133465,
        -0.005507 0.004969 -0.133465,
        -0.009623 0.001131 -0.133465,
        -0.009565 0.001872 -0.133465,
        -0.009354 0.002648 -0.133465,
        -0.008988 0.003325 -0.133465,
        -0.008431 0.003942 -0.133465,
        -0.008423 0.003949 -0.133465,
        -0.007566 0.004524 -0.133465,
        -0.006645 0.004847 -0.133465,
        -0.006400 -0.002820 -0.133465,
        -0.007308 -0.002550 -0.133465,
        -0.008130 -0.002072 -0.133465,
        -0.008778 -0.001452 -0.133465,
        -0.009230 -0.000747 -0.133465,
        -0.009512 0.000077 -0.133465,
        -0.008042 0.003000 -0.133465,
        -0.007660 0.003406 -0.133465,
        -0.007085 0.003778 -0.133465,
        -0.006435 0.004006 -0.133465,
        -0.005503 0.004104 -0.133465,
        -0.004341 0.004104 -0.133465,
        -0.004341 -0.002041 -0.133465,
        -0.005459 -0.002041 -0.133465,
        -0.006290 -0.001964 -0.133465,
        -0.006953 -0.001757 -0.133465,
        -0.007490 -0.001438 -0.133465,
        -0.007931 -0.001002 -0.133465,
        -0.008263 -0.000459 -0.133465,
        -0.008494 0.000281 -0.133465,
        -0.008567 0.001108 -0.133465,
        -0.008500 0.001892 -0.133465,
        -0.008316 0.002515 -0.133465,
        -0.005503 0.004104 -0.133858,
        -0.004341 0.004104 -0.133858,
        -0.006435 0.004006 -0.133858,
        -0.007085 0.003778 -0.133858,
        -0.007660 0.003406 -0.133858,
        -0.008042 0.003000 -0.133858,
        -0.008316 0.002515 -0.133858,
        -0.008500 0.001892 -0.133858,
        -0.008567 0.001108 -0.133858,
        -0.008494 0.000281 -0.133858,
        -0.008263 -0.000459 -0.133858,
        -0.007931 -0.001002 -0.133858,
        -0.007490 -0.001438 -0.133858,
        -0.006953 -0.001757 -0.133858,
        -0.006290 -0.001964 -0.133858,
        -0.005459 -0.002041 -0.133858,
        -0.004341 -0.002041 -0.133858,
        -0.001749 -0.002041 -0.133465,
        -0.001749 -0.002906 -0.133465,
        0.002476 -0.002906 -0.133465,
        0.002476 0.004969 -0.133465,
        -0.001557 0.004969 -0.133465,
        -0.001557 0.004104 -0.133465,
        0.001420 0.004104 -0.133465,
        0.001420 0.001512 -0.133465,
        -0.001365 0.001512 -0.133465,
        -0.001365 0.000648 -0.133465,
        0.001420 0.000648 -0.133465,
        0.001420 -0.002041 -0.133465,
        0.004013 -0.001633 -0.133465,
        0.004013 -0.002497 -0.133465,
        0.004852 -0.002842 -0.133465,
        0.006179 -0.003002 -0.133465,
        0.005964 -0.002998 -0.133465,
        0.009870 0.000883 -0.133465,
        0.009794 -0.000029 -0.133465,
        0.009557 -0.000862 -0.133465,
        0.009137 -0.001611 -0.133465,
        0.008546 -0.002233 -0.133465,
        0.007913 -0.002638 -0.133465,
        0.007150 -0.002901 -0.133465,
        0.005866 0.005065 -0.133465,
        0.006657 0.005000 -0.133465,
        0.007534 0.004745 -0.133465,
        0.008282 0.004315 -0.133465,
        0.008993 0.003631 -0.133465,
        0.009455 0.002895 -0.133465,
        0.009757 0.002002 -0.133465,
        0.004923 0.005000 -0.133465,
        0.004013 0.004753 -0.133465,
        0.004013 0.003696 -0.133465,
        0.005857 0.004200 -0.133465,
        0.004900 0.004076 -0.133465,
        0.008814 0.000948 -0.133465,
        0.008776 0.001560 -0.133465,
        0.008567 0.002403 -0.133465,
        0.008242 0.003011 -0.133465,
        0.007766 0.003536 -0.133465,
        0.007221 0.003901 -0.133465,
        0.006632 0.004113 -0.133465,
        0.006034 -0.002137 -0.133465,
        0.006768 -0.002055 -0.133465,
        0.007342 -0.001844 -0.133465,
        0.007825 -0.001518 -0.133465,
        0.008194 -0.001128 -0.133465,
        0.008520 -0.000582 -0.133465,
        0.008734 0.000095 -0.133465,
        0.004154 -0.001711 -0.133465,
        0.004989 -0.002021 -0.133465,
        0.010543 -0.002041 -0.133465,
        0.010543 -0.002906 -0.133465,
        0.014575 -0.002906 -0.133465,
        0.014575 0.004969 -0.133465,
        0.013519 0.004969 -0.133465,
        0.013519 -0.002041 -0.133465,
      ]
    }
    coordIndex [
      88, 89, 86, -1,
      86, 89, 85, -1,
      89, 90, 85, -1,
      85, 90, 84, -1,
      90, 91, 84, -1,
      84, 91, 80, -1,
      91, 92, 80, -1,
      80, 92, 81, -1,
      92, 93, 81, -1,
      81, 93, 82, -1,
      93, 94, 82, -1,
      82, 94, 83, -1,
      94, 95, 83, -1,
      83, 95, 87, -1,
      95, 88, 87, -1,
      87, 88, 86, -1,
      96, 92, 97, -1,
      97, 92, 91, -1,
      98, 95, 96, -1,
      96, 95, 94, -1,
      96, 94, 92, -1,
      92, 94, 93, -1,
      98, 99, 95, -1,
      95, 99, 100, -1,
      95, 100, 88, -1,
      88, 100, 101, -1,
      88, 101, 102, -1,
      102, 103, 88, -1,
      88, 103, 97, -1,
      88, 97, 89, -1,
      89, 97, 91, -1,
      89, 91, 90, -1,
      96, 97, 104, -1,
      104, 97, 105, -1,
      98, 96, 106, -1,
      106, 96, 104, -1,
      98, 106, 107, -1,
      98, 107, 99, -1,
      99, 107, 108, -1,
      99, 108, 100, -1,
      101, 100, 109, -1,
      109, 100, 108, -1,
      101, 109, 110, -1,
      101, 110, 102, -1,
      102, 110, 111, -1,
      102, 111, 103, -1,
      97, 103, 105, -1,
      105, 103, 111, -1,
      112, 113, 70, -1,
      70, 113, 62, -1,
      113, 114, 62, -1,
      62, 114, 71, -1,
      114, 115, 71, -1,
      71, 115, 72, -1,
      116, 63, 79, -1,
      116, 79, 117, -1,
      117, 79, 78, -1,
      117, 78, 118, -1,
      118, 78, 77, -1,
      118, 77, 119, -1,
      119, 77, 76, -1,
      119, 76, 120, -1,
      120, 76, 75, -1,
      120, 75, 121, -1,
      121, 75, 74, -1,
      121, 74, 122, -1,
      122, 74, 73, -1,
      122, 73, 123, -1,
      123, 73, 72, -1,
      123, 72, 115, -1,
      112, 70, 69, -1,
      112, 69, 124, -1,
      124, 69, 68, -1,
      124, 68, 125, -1,
      125, 68, 67, -1,
      125, 67, 126, -1,
      126, 67, 66, -1,
      126, 66, 127, -1,
      127, 66, 65, -1,
      127, 65, 128, -1,
      128, 65, 64, -1,
      128, 64, 129, -1,
      129, 64, 63, -1,
      129, 63, 116, -1,
      118, 119, 130, -1,
      130, 119, 120, -1,
      130, 120, 131, -1,
      131, 120, 121, -1,
      131, 121, 132, -1,
      132, 121, 122, -1,
      132, 122, 133, -1,
      133, 122, 123, -1,
      133, 123, 134, -1,
      134, 123, 115, -1,
      134, 115, 135, -1,
      135, 115, 114, -1,
      135, 114, 136, -1,
      136, 114, 113, -1,
      136, 113, 137, -1,
      137, 113, 112, -1,
      137, 112, 138, -1,
      138, 112, 124, -1,
      138, 124, 139, -1,
      139, 124, 125, -1,
      139, 125, 140, -1,
      140, 125, 126, -1,
      140, 126, 141, -1,
      141, 126, 127, -1,
      141, 127, 142, -1,
      142, 127, 128, -1,
      142, 128, 143, -1,
      143, 128, 129, -1,
      143, 129, 144, -1,
      144, 129, 116, -1,
      144, 116, 145, -1,
      145, 116, 117, -1,
      145, 117, 146, -1,
      146, 117, 118, -1,
      146, 118, 130, -1,
      134, 135, 147, -1,
      147, 135, 148, -1,
      134, 147, 149, -1,
      134, 149, 133, -1,
      133, 149, 150, -1,
      133, 150, 132, -1,
      132, 150, 151, -1,
      132, 151, 131, -1,
      131, 151, 152, -1,
      131, 152, 130, -1,
      130, 152, 153, -1,
      130, 153, 146, -1,
      146, 153, 154, -1,
      146, 154, 145, -1,
      145, 154, 155, -1,
      145, 155, 144, -1,
      144, 155, 156, -1,
      144, 156, 143, -1,
      143, 156, 157, -1,
      143, 157, 142, -1,
      142, 157, 158, -1,
      142, 158, 141, -1,
      141, 158, 159, -1,
      141, 159, 140, -1,
      140, 159, 160, -1,
      140, 160, 139, -1,
      139, 160, 161, -1,
      139, 161, 138, -1,
      138, 161, 162, -1,
      138, 162, 137, -1,
      136, 137, 163, -1,
      163, 137, 162, -1,
      135, 136, 148, -1,
      148, 136, 163, -1,
      164, 165, 50, -1,
      50, 165, 51, -1,
      165, 166, 51, -1,
      51, 166, 52, -1,
      166, 167, 52, -1,
      52, 167, 53, -1,
      167, 168, 53, -1,
      53, 168, 54, -1,
      168, 169, 54, -1,
      54, 169, 55, -1,
      169, 170, 55, -1,
      55, 170, 56, -1,
      170, 171, 56, -1,
      56, 171, 57, -1,
      171, 172, 57, -1,
      57, 172, 61, -1,
      172, 173, 61, -1,
      61, 173, 60, -1,
      173, 174, 60, -1,
      60, 174, 58, -1,
      174, 175, 58, -1,
      58, 175, 59, -1,
      175, 164, 59, -1,
      59, 164, 50, -1,
      166, 165, 164, -1,
      164, 175, 166, -1,
      166, 175, 174, -1,
      166, 174, 167, -1,
      169, 168, 170, -1,
      170, 168, 167, -1,
      170, 167, 171, -1,
      171, 167, 174, -1,
      171, 174, 172, -1,
      172, 174, 173, -1,
      176, 177, 1, -1,
      1, 177, 0, -1,
      0, 177, 178, -1,
      179, 41, 38, -1,
      179, 38, 180, -1,
      180, 38, 39, -1,
      180, 39, 178, -1,
      178, 39, 40, -1,
      178, 40, 0, -1,
      181, 36, 35, -1,
      181, 35, 182, -1,
      182, 35, 31, -1,
      182, 31, 183, -1,
      183, 31, 30, -1,
      183, 30, 184, -1,
      184, 30, 29, -1,
      184, 29, 185, -1,
      185, 29, 28, -1,
      185, 28, 186, -1,
      186, 28, 43, -1,
      186, 43, 187, -1,
      187, 43, 179, -1,
      179, 43, 42, -1,
      179, 42, 41, -1,
      24, 25, 188, -1,
      188, 25, 189, -1,
      25, 34, 189, -1,
      189, 34, 33, -1,
      189, 33, 190, -1,
      190, 33, 32, -1,
      190, 32, 191, -1,
      191, 32, 27, -1,
      191, 27, 192, -1,
      192, 27, 26, -1,
      192, 26, 193, -1,
      193, 26, 37, -1,
      193, 37, 194, -1,
      194, 37, 36, -1,
      194, 36, 181, -1,
      24, 188, 2, -1,
      2, 188, 195, -1,
      2, 195, 3, -1,
      3, 195, 196, -1,
      3, 196, 4, -1,
      196, 197, 4, -1,
      4, 197, 5, -1,
      198, 8, 6, -1,
      198, 6, 199, -1,
      199, 6, 5, -1,
      199, 5, 197, -1,
      200, 13, 23, -1,
      200, 23, 201, -1,
      201, 23, 22, -1,
      201, 22, 202, -1,
      202, 22, 12, -1,
      202, 12, 203, -1,
      203, 12, 11, -1,
      203, 11, 204, -1,
      204, 11, 10, -1,
      204, 10, 205, -1,
      205, 10, 9, -1,
      205, 9, 206, -1,
      206, 9, 8, -1,
      206, 8, 198, -1,
      207, 17, 16, -1,
      207, 16, 208, -1,
      208, 16, 18, -1,
      208, 18, 209, -1,
      209, 18, 19, -1,
      209, 19, 210, -1,
      210, 19, 20, -1,
      210, 20, 211, -1,
      211, 20, 15, -1,
      211, 15, 212, -1,
      212, 15, 14, -1,
      212, 14, 213, -1,
      213, 14, 13, -1,
      213, 13, 200, -1,
      176, 1, 7, -1,
      176, 7, 214, -1,
      214, 7, 21, -1,
      214, 21, 215, -1,
      215, 21, 17, -1,
      215, 17, 207, -1,
      208, 179, 207, -1,
      207, 179, 180, -1,
      207, 180, 215, -1,
      215, 180, 178, -1,
      215, 178, 214, -1,
      214, 178, 177, -1,
      214, 177, 176, -1,
      197, 196, 199, -1,
      199, 196, 195, -1,
      199, 195, 198, -1,
      198, 195, 188, -1,
      198, 188, 206, -1,
      206, 188, 189, -1,
      206, 189, 205, -1,
      205, 189, 190, -1,
      205, 190, 204, -1,
      204, 190, 191, -1,
      204, 191, 203, -1,
      203, 191, 192, -1,
      203, 192, 202, -1,
      202, 192, 193, -1,
      202, 193, 201, -1,
      201, 193, 194, -1,
      201, 194, 200, -1,
      200, 194, 181, -1,
      200, 181, 213, -1,
      213, 181, 182, -1,
      213, 182, 212, -1,
      212, 182, 183, -1,
      212, 183, 211, -1,
      211, 183, 184, -1,
      211, 184, 210, -1,
      210, 184, 185, -1,
      210, 185, 209, -1,
      209, 185, 186, -1,
      209, 186, 208, -1,
      208, 186, 187, -1,
      208, 187, 179, -1,
      216, 217, 44, -1,
      44, 217, 45, -1,
      217, 218, 45, -1,
      45, 218, 46, -1,
      218, 219, 46, -1,
      46, 219, 49, -1,
      219, 220, 49, -1,
      49, 220, 48, -1,
      220, 221, 48, -1,
      48, 221, 47, -1,
      221, 216, 47, -1,
      47, 216, 44, -1,
      220, 219, 221, -1,
      221, 219, 218, -1,
      221, 218, 216, -1,
      216, 218, 217, -1,
    ]
  }
}

Shape {
  appearance Appearance {
    material Material {
      diffuseColor 0.5020 0.5020 0.5020
      specularColor 0.2510 0.2510 0.2510
      ambientIntensity 0.2
      transparency 0.0000
      shininess 0.5
    }
  }
  geometry IndexedFaceSet {
    ccw TRUE
    solid FALSE
    coord DEF co Coordinate {
      point [
        -0.012369 0.000167 -0.133858,
        -0.015002 0.000167 -0.133858,
        -0.013543 0.003456 -0.133858,
        -0.013619 0.003729 -0.133858,
        -0.013669 0.004008 -0.133858,
        -0.013695 0.004008 -0.133858,
        -0.013746 0.003730 -0.133858,
        -0.013817 0.003456 -0.133858,
        -0.005503 0.004104 -0.133858,
        -0.004341 0.004104 -0.133858,
        -0.006435 0.004006 -0.133858,
        -0.007085 0.003778 -0.133858,
        -0.007660 0.003406 -0.133858,
        -0.008042 0.003000 -0.133858,
        -0.008316 0.002515 -0.133858,
        -0.008500 0.001892 -0.133858,
        -0.008567 0.001108 -0.133858,
        -0.008494 0.000281 -0.133858,
        -0.008263 -0.000459 -0.133858,
        -0.007931 -0.001002 -0.133858,
        -0.007490 -0.001438 -0.133858,
        -0.006953 -0.001757 -0.133858,
        -0.006290 -0.001964 -0.133858,
        -0.005459 -0.002041 -0.133858,
        -0.004341 -0.002041 -0.133858,
      ]
    }
    coordIndex [
      0, 1, 2, -1,
      2, 1, 7, -1,
      2, 7, 3, -1,
      3, 7, 6, -1,
      3, 6, 4, -1,
      4, 6, 5, -1,
      9, 24, 8, -1,
      8, 24, 23, -1,
      8, 23, 22, -1,
      16, 15, 8, -1,
      8, 15, 14, -1,
      8, 14, 10, -1,
      22, 21, 8, -1,
      8, 21, 20, -1,
      8, 20, 19, -1,
      19, 18, 8, -1,
      8, 18, 17, -1,
      8, 17, 16, -1,
      13, 12, 14, -1,
      14, 12, 11, -1,
      14, 11, 10, -1,
    ]
  }
}

Shape {
  appearance Appearance {
    material Material {
      diffuseColor 0.7529 0.7529 0.7529
      specularColor 0.3765 0.3765 0.3765
      ambientIntensity 0.2
      transparency 0.0000
      shininess 0.5
    }
  }
  geometry IndexedFaceSet {
    ccw TRUE
    solid FALSE
    coord DEF co Coordinate {
      point [
        -0.106145 0.072426 0.000000,
        -0.106677 0.068387 0.000000,
        -0.108236 0.064622 0.000000,
        -0.121753 0.056819 0.000000,
        -0.125793 0.057350 0.000000,
        -0.129557 0.058909 0.000000,
        -0.136829 0.068387 0.000000,
        -0.135270 0.064622 0.000000,
        -0.132790 0.061390 0.000000,
        -0.110717 0.061390 0.000000,
        -0.113949 0.058909 0.000000,
        -0.117713 0.057350 0.000000,
        -0.137361 0.072426 0.000000,
        -0.136829 0.076466 0.000000,
        -0.135270 0.080230 0.000000,
        -0.132790 0.083463 0.000000,
        -0.129557 0.085943 0.000000,
        -0.125793 0.087502 0.000000,
        -0.121753 0.088034 0.000000,
        -0.117713 0.087502 0.000000,
        -0.113949 0.085943 0.000000,
        -0.110717 0.083463 0.000000,
        -0.108236 0.080230 0.000000,
        -0.106677 0.076466 0.000000,
        -0.111646 0.066591 -0.003937,
        -0.110480 0.069406 -0.003937,
        -0.121753 0.072426 -0.003937,
        -0.110082 0.072426 -0.003937,
        -0.110480 0.075447 -0.003937,
        -0.118733 0.061153 -0.003937,
        -0.115918 0.062319 -0.003937,
        -0.113501 0.064174 -0.003937,
        -0.127589 0.062319 -0.003937,
        -0.124774 0.061153 -0.003937,
        -0.121753 0.060756 -0.003937,
        -0.133026 0.069406 -0.003937,
        -0.131860 0.066591 -0.003937,
        -0.130006 0.064174 -0.003937,
        -0.131860 0.078261 -0.003937,
        -0.133026 0.075447 -0.003937,
        -0.133424 0.072426 -0.003937,
        -0.124774 0.083699 -0.003937,
        -0.127589 0.082533 -0.003937,
        -0.130006 0.080679 -0.003937,
        -0.115918 0.082533 -0.003937,
        -0.118733 0.083699 -0.003937,
        -0.121753 0.084097 -0.003937,
        -0.111646 0.078261 -0.003937,
        -0.113501 0.080679 -0.003937,
        -0.109496 0.075711 -0.003803,
        -0.110763 0.078771 -0.003803,
        -0.112780 0.081399 -0.003803,
        -0.115408 0.083416 -0.003803,
        -0.118469 0.084683 -0.003803,
        -0.121753 0.085116 -0.003803,
        -0.125037 0.084683 -0.003803,
        -0.128098 0.083416 -0.003803,
        -0.130726 0.081399 -0.003803,
        -0.132743 0.078771 -0.003803,
        -0.134011 0.075711 -0.003803,
        -0.134443 0.072426 -0.003803,
        -0.134011 0.069142 -0.003803,
        -0.132743 0.066081 -0.003803,
        -0.130726 0.063453 -0.003803,
        -0.128098 0.061437 -0.003803,
        -0.125037 0.060169 -0.003803,
        -0.121753 0.059736 -0.003803,
        -0.118469 0.060169 -0.003803,
        -0.115408 0.061437 -0.003803,
        -0.112780 0.063453 -0.003803,
        -0.110763 0.066081 -0.003803,
        -0.109496 0.069142 -0.003803,
        -0.109063 0.072426 -0.003803,
        -0.108579 0.075956 -0.003409,
        -0.109941 0.079246 -0.003409,
        -0.112109 0.082070 -0.003409,
        -0.114933 0.084238 -0.003409,
        -0.118223 0.085601 -0.003409,
        -0.121753 0.086065 -0.003409,
        -0.125283 0.085601 -0.003409,
        -0.128573 0.084238 -0.003409,
        -0.131398 0.082070 -0.003409,
        -0.133565 0.079246 -0.003409,
        -0.134928 0.075956 -0.003409,
        -0.135393 0.072426 -0.003409,
        -0.134928 0.068896 -0.003409,
        -0.133565 0.065607 -0.003409,
        -0.131398 0.062782 -0.003409,
        -0.128573 0.060614 -0.003409,
        -0.125283 0.059252 -0.003409,
        -0.121753 0.058787 -0.003409,
        -0.118223 0.059252 -0.003409,
        -0.114933 0.060614 -0.003409,
        -0.112109 0.062782 -0.003409,
        -0.109941 0.065607 -0.003409,
        -0.108579 0.068896 -0.003409,
        -0.108114 0.072426 -0.003409,
        -0.107791 0.076167 -0.002784,
        -0.109235 0.079654 -0.002784,
        -0.111532 0.082647 -0.002784,
        -0.114526 0.084944 -0.002784,
        -0.118012 0.086388 -0.002784,
        -0.121753 0.086881 -0.002784,
        -0.125494 0.086388 -0.002784,
        -0.128981 0.084944 -0.002784,
        -0.131974 0.082647 -0.002784,
        -0.134271 0.079654 -0.002784,
        -0.135715 0.076167 -0.002784,
        -0.136208 0.072426 -0.002784,
        -0.135715 0.068685 -0.002784,
        -0.134271 0.065199 -0.002784,
        -0.131974 0.062205 -0.002784,
        -0.128981 0.059908 -0.002784,
        -0.125494 0.058464 -0.002784,
        -0.121753 0.057971 -0.002784,
        -0.118012 0.058464 -0.002784,
        -0.114526 0.059908 -0.002784,
        -0.111532 0.062205 -0.002784,
        -0.109235 0.065199 -0.002784,
        -0.107791 0.068685 -0.002784,
        -0.107298 0.072426 -0.002784,
        -0.107187 0.076329 -0.001969,
        -0.108693 0.079967 -0.001969,
        -0.111090 0.083090 -0.001969,
        -0.114213 0.085486 -0.001969,
        -0.117850 0.086993 -0.001969,
        -0.121753 0.087507 -0.001969,
        -0.125656 0.086993 -0.001969,
        -0.129293 0.085486 -0.001969,
        -0.132417 0.083090 -0.001969,
        -0.134813 0.079967 -0.001969,
        -0.136320 0.076329 -0.001969,
        -0.136833 0.072426 -0.001969,
        -0.136320 0.068523 -0.001969,
        -0.134813 0.064886 -0.001969,
        -0.132417 0.061763 -0.001969,
        -0.129293 0.059366 -0.001969,
        -0.125656 0.057859 -0.001969,
        -0.121753 0.057346 -0.001969,
        -0.117850 0.057859 -0.001969,
        -0.114213 0.059366 -0.001969,
        -0.111090 0.061763 -0.001969,
        -0.108693 0.064886 -0.001969,
        -0.107187 0.068523 -0.001969,
        -0.106673 0.072426 -0.001969,
        -0.106807 0.076431 -0.001019,
        -0.108353 0.080163 -0.001019,
        -0.110812 0.083368 -0.001019,
        -0.114016 0.085827 -0.001019,
        -0.117748 0.087372 -0.001019,
        -0.121753 0.087900 -0.001019,
        -0.125758 0.087372 -0.001019,
        -0.129490 0.085827 -0.001019,
        -0.132695 0.083368 -0.001019,
        -0.135154 0.080163 -0.001019,
        -0.136700 0.076431 -0.001019,
        -0.137227 0.072426 -0.001019,
        -0.136700 0.068421 -0.001019,
        -0.135154 0.064689 -0.001019,
        -0.132695 0.061485 -0.001019,
        -0.129490 0.059026 -0.001019,
        -0.125758 0.057480 -0.001019,
        -0.121753 0.056952 -0.001019,
        -0.117748 0.057480 -0.001019,
        -0.114016 0.059026 -0.001019,
        -0.110812 0.061485 -0.001019,
        -0.108353 0.064689 -0.001019,
        -0.106807 0.068421 -0.001019,
        -0.106280 0.072426 -0.001019,
      ]
    }
    coordIndex [
      24, 25, 26, -1,
      26, 25, 27, -1,
      26, 27, 28, -1,
      29, 30, 26, -1,
      26, 30, 31, -1,
      26, 31, 24, -1,
      32, 33, 26, -1,
      26, 33, 34, -1,
      26, 34, 29, -1,
      35, 36, 26, -1,
      26, 36, 37, -1,
      26, 37, 32, -1,
      38, 39, 26, -1,
      26, 39, 40, -1,
      26, 40, 35, -1,
      41, 42, 26, -1,
      26, 42, 43, -1,
      26, 43, 38, -1,
      44, 45, 26, -1,
      26, 45, 46, -1,
      26, 46, 41, -1,
      28, 47, 26, -1,
      26, 47, 48, -1,
      26, 48, 44, -1,
      28, 49, 47, -1,
      47, 49, 50, -1,
      47, 50, 48, -1,
      48, 50, 51, -1,
      48, 51, 44, -1,
      44, 51, 52, -1,
      44, 52, 45, -1,
      45, 52, 53, -1,
      45, 53, 46, -1,
      46, 53, 54, -1,
      46, 54, 41, -1,
      41, 54, 55, -1,
      41, 55, 42, -1,
      42, 55, 56, -1,
      42, 56, 43, -1,
      43, 56, 57, -1,
      43, 57, 38, -1,
      38, 57, 58, -1,
      38, 58, 39, -1,
      39, 58, 59, -1,
      39, 59, 40, -1,
      40, 59, 60, -1,
      40, 60, 35, -1,
      35, 60, 61, -1,
      35, 61, 36, -1,
      36, 61, 62, -1,
      36, 62, 37, -1,
      37, 62, 63, -1,
      37, 63, 32, -1,
      32, 63, 64, -1,
      32, 64, 33, -1,
      33, 64, 65, -1,
      33, 65, 34, -1,
      34, 65, 66, -1,
      34, 66, 29, -1,
      29, 66, 67, -1,
      29, 67, 30, -1,
      30, 67, 68, -1,
      30, 68, 31, -1,
      31, 68, 69, -1,
      31, 69, 24, -1,
      24, 69, 70, -1,
      24, 70, 25, -1,
      25, 70, 71, -1,
      25, 71, 27, -1,
      27, 71, 72, -1,
      27, 72, 28, -1,
      28, 72, 49, -1,
      49, 73, 50, -1,
      50, 73, 74, -1,
      50, 74, 51, -1,
      51, 74, 75, -1,
      51, 75, 52, -1,
      52, 75, 76, -1,
      52, 76, 53, -1,
      53, 76, 77, -1,
      53, 77, 54, -1,
      54, 77, 78, -1,
      54, 78, 55, -1,
      55, 78, 79, -1,
      55, 79, 56, -1,
      56, 79, 80, -1,
      56, 80, 57, -1,
      57, 80, 81, -1,
      57, 81, 58, -1,
      58, 81, 82, -1,
      58, 82, 59, -1,
      59, 82, 83, -1,
      59, 83, 60, -1,
      60, 83, 84, -1,
      60, 84, 61, -1,
      61, 84, 85, -1,
      61, 85, 62, -1,
      62, 85, 86, -1,
      62, 86, 63, -1,
      63, 86, 87, -1,
      63, 87, 64, -1,
      64, 87, 88, -1,
      64, 88, 65, -1,
      65, 88, 89, -1,
      65, 89, 66, -1,
      66, 89, 90, -1,
      66, 90, 67, -1,
      67, 90, 91, -1,
      67, 91, 68, -1,
      68, 91, 92, -1,
      68, 92, 69, -1,
      69, 92, 93, -1,
      69, 93, 70, -1,
      70, 93, 94, -1,
      70, 94, 71, -1,
      71, 94, 95, -1,
      71, 95, 72, -1,
      72, 95, 96, -1,
      72, 96, 49, -1,
      49, 96, 73, -1,
      73, 97, 74, -1,
      74, 97, 98, -1,
      74, 98, 75, -1,
      75, 98, 99, -1,
      75, 99, 76, -1,
      76, 99, 100, -1,
      76, 100, 77, -1,
      77, 100, 101, -1,
      77, 101, 78, -1,
      78, 101, 102, -1,
      78, 102, 79, -1,
      79, 102, 103, -1,
      79, 103, 80, -1,
      80, 103, 104, -1,
      80, 104, 81, -1,
      81, 104, 105, -1,
      81, 105, 82, -1,
      82, 105, 106, -1,
      82, 106, 83, -1,
      83, 106, 107, -1,
      83, 107, 84, -1,
      84, 107, 108, -1,
      84, 108, 85, -1,
      85, 108, 109, -1,
      85, 109, 86, -1,
      86, 109, 110, -1,
      86, 110, 87, -1,
      87, 110, 111, -1,
      87, 111, 88, -1,
      88, 111, 112, -1,
      88, 112, 89, -1,
      89, 112, 113, -1,
      89, 113, 90, -1,
      90, 113, 114, -1,
      90, 114, 91, -1,
      91, 114, 115, -1,
      91, 115, 92, -1,
      92, 115, 116, -1,
      92, 116, 93, -1,
      93, 116, 117, -1,
      93, 117, 94, -1,
      94, 117, 118, -1,
      94, 118, 95, -1,
      95, 118, 119, -1,
      95, 119, 96, -1,
      96, 119, 120, -1,
      96, 120, 73, -1,
      73, 120, 97, -1,
      97, 121, 98, -1,
      98, 121, 122, -1,
      98, 122, 99, -1,
      99, 122, 123, -1,
      99, 123, 100, -1,
      100, 123, 124, -1,
      100, 124, 101, -1,
      101, 124, 125, -1,
      101, 125, 102, -1,
      102, 125, 126, -1,
      102, 126, 103, -1,
      103, 126, 127, -1,
      103, 127, 104, -1,
      104, 127, 128, -1,
      104, 128, 105, -1,
      105, 128, 129, -1,
      105, 129, 106, -1,
      106, 129, 130, -1,
      106, 130, 107, -1,
      107, 130, 131, -1,
      107, 131, 108, -1,
      108, 131, 132, -1,
      108, 132, 109, -1,
      109, 132, 133, -1,
      109, 133, 110, -1,
      110, 133, 134, -1,
      110, 134, 111, -1,
      111, 134, 135, -1,
      111, 135, 112, -1,
      112, 135, 136, -1,
      112, 136, 113, -1,
      113, 136, 137, -1,
      113, 137, 114, -1,
      114, 137, 138, -1,
      114, 138, 115, -1,
      115, 138, 139, -1,
      115, 139, 116, -1,
      116, 139, 140, -1,
      116, 140, 117, -1,
      117, 140, 141, -1,
      117, 141, 118, -1,
      118, 141, 142, -1,
      118, 142, 119, -1,
      119, 142, 143, -1,
      119, 143, 120, -1,
      120, 143, 144, -1,
      120, 144, 97, -1,
      97, 144, 121, -1,
      121, 145, 122, -1,
      122, 145, 146, -1,
      122, 146, 123, -1,
      123, 146, 147, -1,
      123, 147, 124, -1,
      124, 147, 148, -1,
      124, 148, 125, -1,
      125, 148, 149, -1,
      125, 149, 126, -1,
      126, 149, 150, -1,
      126, 150, 127, -1,
      127, 150, 151, -1,
      127, 151, 128, -1,
      128, 151, 152, -1,
      128, 152, 129, -1,
      129, 152, 153, -1,
      129, 153, 130, -1,
      130, 153, 154, -1,
      130, 154, 131, -1,
      131, 154, 155, -1,
      131, 155, 132, -1,
      132, 155, 156, -1,
      132, 156, 133, -1,
      133, 156, 157, -1,
      133, 157, 134, -1,
      134, 157, 158, -1,
      134, 158, 135, -1,
      135, 158, 159, -1,
      135, 159, 136, -1,
      136, 159, 160, -1,
      136, 160, 137, -1,
      137, 160, 161, -1,
      137, 161, 138, -1,
      138, 161, 162, -1,
      138, 162, 139, -1,
      139, 162, 163, -1,
      139, 163, 140, -1,
      140, 163, 164, -1,
      140, 164, 141, -1,
      141, 164, 165, -1,
      141, 165, 142, -1,
      142, 165, 166, -1,
      142, 166, 143, -1,
      143, 166, 167, -1,
      143, 167, 144, -1,
      144, 167, 168, -1,
      144, 168, 121, -1,
      121, 168, 145, -1,
      145, 23, 146, -1,
      146, 23, 22, -1,
      146, 22, 147, -1,
      147, 22, 21, -1,
      147, 21, 148, -1,
      148, 21, 20, -1,
      148, 20, 149, -1,
      149, 20, 19, -1,
      149, 19, 150, -1,
      150, 19, 18, -1,
      150, 18, 151, -1,
      151, 18, 17, -1,
      151, 17, 152, -1,
      152, 17, 16, -1,
      152, 16, 153, -1,
      153, 16, 15, -1,
      153, 15, 154, -1,
      154, 15, 14, -1,
      154, 14, 155, -1,
      155, 14, 13, -1,
      155, 13, 156, -1,
      156, 13, 12, -1,
      156, 12, 157, -1,
      157, 12, 6, -1,
      157, 6, 158, -1,
      158, 6, 7, -1,
      158, 7, 159, -1,
      159, 7, 8, -1,
      159, 8, 160, -1,
      160, 8, 5, -1,
      160, 5, 161, -1,
      161, 5, 4, -1,
      161, 4, 162, -1,
      162, 4, 3, -1,
      162, 3, 163, -1,
      163, 3, 11, -1,
      163, 11, 164, -1,
      164, 11, 10, -1,
      164, 10, 165, -1,
      165, 10, 9, -1,
      165, 9, 166, -1,
      166, 9, 2, -1,
      166, 2, 167, -1,
      167, 2, 1, -1,
      167, 1, 168, -1,
      168, 1, 0, -1,
      168, 0, 145, -1,
      145, 0, 23, -1,
    ]
  }
}
