#VRML V2.0 utf8

Shape {
  appearance Appearance {
    material Material {
      diffuseColor 0.1373 0.4549 0.8784
      specularColor 0.0667 0.2275 0.4392
      ambientIntensity 0.2
      transparency 0.0000
      shininess 0.5
    }
  }
  geometry IndexedFaceSet {
    ccw TRUE
    solid FALSE
    coord DEF co Coordinate {
      point [
        -0.787402 -0.511811 0.000000,
        -0.885827 -0.511811 0.000000,
        -0.885827 -0.037287 0.000000,
        -0.020877 0.885827 0.000000,
        0.787402 0.885827 0.000000,
        0.386404 0.787402 -0.000000,
        0.787402 0.787402 0.000000,
        -0.011274 0.033291 0.000000,
        -0.013194 -0.028164 0.000000,
        -0.011274 0.041934 0.000000,
        0.029056 -0.036806 0.000000,
        0.029056 0.041934 0.000000,
        0.044420 -0.024083 0.000000,
        0.044420 -0.032725 0.000000,
        0.052813 -0.036172 0.000000,
        0.060770 -0.037287 0.000000,
        0.018493 -0.001277 0.000000,
        0.018493 -0.028164 0.000000,
        -0.009354 -0.001277 0.000000,
        -0.009354 0.007365 0.000000,
        0.018493 0.007365 0.000000,
        0.018493 0.033291 0.000000,
        0.386404 0.590551 -0.000000,
        0.098839 0.021194 0.000000,
        0.094224 0.028556 0.000000,
        0.139484 0.041934 0.000000,
        0.070613 0.033381 0.000000,
        0.076507 0.031254 0.000000,
        0.045831 -0.024865 0.000000,
        0.081957 0.027608 0.000000,
        0.086712 0.022359 0.000000,
        0.092432 0.001724 0.000000,
        0.091635 -0.006801 0.000000,
        0.089496 -0.013573 0.000000,
        0.071974 -0.028301 0.000000,
        0.064630 -0.029124 0.000000,
        0.077712 -0.026189 0.000000,
        0.082544 -0.022931 0.000000,
        0.086239 -0.019033 0.000000,
        0.054178 -0.027964 0.000000,
        0.089958 0.016279 0.000000,
        0.092057 0.007850 0.000000,
        0.885827 0.511811 0.000000,
        0.885827 -0.037287 0.000000,
        0.150047 -0.036806 0.000000,
        0.070716 -0.037287 0.000000,
        0.109717 -0.036806 0.000000,
        0.075789 -0.036761 0.000000,
        0.083421 -0.034133 0.000000,
        0.062950 0.042894 0.000000,
        0.053524 0.042244 0.000000,
        0.044420 0.039773 0.000000,
        0.044420 0.029211 0.000000,
        0.053289 0.033008 0.000000,
        0.062860 0.034252 0.000000,
        0.089755 -0.030089 0.000000,
        0.095669 -0.023863 0.000000,
        0.109717 -0.028164 0.000000,
        0.099864 -0.016376 0.000000,
        0.139484 -0.028164 0.000000,
        0.087115 0.035393 0.000000,
        0.079637 0.039698 0.000000,
        0.070859 0.042248 0.000000,
        0.150047 0.041934 0.000000,
        0.787402 0.590551 0.000000,
        0.787402 0.511811 0.000000,
        0.102234 -0.008041 0.000000,
        0.102995 0.001078 0.000000,
        0.101863 0.012273 0.000000,
        -0.049969 -0.036806 0.000000,
        -0.028559 -0.036806 0.000000,
        -0.020877 -0.037287 0.000000,
        -0.028559 0.041934 0.000000,
        -0.168754 -0.036806 0.000000,
        -0.157231 -0.036806 0.000000,
        -0.097696 -0.036806 0.000000,
        -0.088003 -0.015226 0.000000,
        -0.083487 -0.022268 0.000000,
        -0.077006 -0.028474 0.000000,
        -0.068785 -0.033252 0.000000,
        -0.059712 -0.035956 0.000000,
        -0.787402 0.787402 0.000000,
        -0.787402 0.885827 0.000000,
        -0.386404 0.787402 0.000000,
        -0.386404 0.590551 0.000000,
        -0.050779 0.041934 0.000000,
        -0.013194 -0.036806 0.000000,
        -0.787402 0.511811 0.000000,
        -0.787402 0.590551 0.000000,
        -0.109219 -0.036806 0.000000,
        -0.116736 -0.014721 0.000000,
        -0.149265 -0.014721 0.000000,
        -0.062155 0.040718 0.000000,
        -0.071368 0.037483 0.000000,
        -0.127464 0.041934 0.000000,
        -0.079938 0.031739 0.000000,
        -0.138027 0.041934 0.000000,
        -0.080020 0.031667 0.000000,
        -0.085589 0.025493 0.000000,
        -0.089248 0.018721 0.000000,
        -0.091363 0.010963 0.000000,
        -0.091935 0.003554 0.000000,
        -0.090830 -0.006984 0.000000,
        -0.020877 -0.885827 0.000000,
        -0.787402 -0.885827 0.000000,
        -0.386404 -0.787402 0.000000,
        -0.787402 -0.787402 0.000000,
        -0.386404 -0.590551 0.000000,
        -0.787402 -0.590551 0.000000,
        -0.885827 0.511811 0.000000,
        0.787402 -0.787402 0.000000,
        0.787402 -0.885827 0.000000,
        0.386404 -0.787402 -0.000000,
        0.386404 -0.590551 -0.000000,
        0.063933 -0.037730 0.000000,
        0.066086 -0.037767 0.000000,
        0.885827 -0.511811 0.000000,
        0.787402 -0.511811 0.000000,
        0.787402 -0.590551 0.000000,
        0.787402 0.787402 0.035433,
        0.787402 0.511811 0.177165,
        0.787402 0.885827 0.216535,
        0.787402 0.511811 0.216535,
        0.787402 0.590551 0.035433,
        0.787402 -0.511811 0.177165,
        0.787402 -0.511811 0.216535,
        0.787402 -0.885827 0.216535,
        0.787402 -0.590551 0.035433,
        0.787402 -0.787402 0.035433,
        -0.787402 -0.787402 0.035433,
        -0.787402 -0.511811 0.177165,
        -0.787402 -0.885827 0.216535,
        -0.787402 -0.511811 0.216535,
        -0.787402 -0.590551 0.035433,
        -0.787402 0.511811 0.177165,
        -0.787402 0.511811 0.216535,
        -0.787402 0.885827 0.216535,
        -0.787402 0.590551 0.035433,
        -0.787402 0.787402 0.035433,
        -0.413386 0.885827 0.216535,
        -0.413386 0.885827 0.177165,
        0.413386 0.885827 0.216535,
        0.413386 0.885827 0.177165,
        -0.413386 -0.885827 0.177165,
        -0.413386 -0.885827 0.216535,
        0.413386 -0.885827 0.216535,
        0.413386 -0.885827 0.177165,
        0.728346 0.511811 0.216535,
        0.728346 0.819390 0.216535,
        0.413386 0.819390 0.216535,
        -0.728346 -0.511811 0.216535,
        -0.728346 -0.819390 0.216535,
        -0.413386 -0.819390 0.216535,
        -0.413386 0.819390 0.216535,
        -0.728346 0.819390 0.216535,
        -0.728346 0.511811 0.216535,
        0.413386 -0.819390 0.216535,
        0.728346 -0.819390 0.216535,
        0.728346 -0.511811 0.216535,
        0.885827 0.511811 0.177165,
        0.885827 -0.511811 0.177165,
        -0.885827 0.511811 0.177165,
        -0.885827 -0.511811 0.177165,
      ]
    }
    coordIndex [
      0, 1, 2, -1,
      3, 4, 5, -1,
      5, 4, 6, -1,
      7, 8, 9, -1,
      9, 8, 3, -1,
      10, 11, 12, -1,
      12, 13, 10, -1,
      10, 13, 14, -1,
      10, 14, 15, -1,
      16, 17, 18, -1,
      18, 17, 8, -1,
      18, 8, 19, -1,
      19, 8, 7, -1,
      19, 7, 20, -1,
      20, 7, 21, -1,
      3, 5, 9, -1,
      9, 5, 22, -1,
      9, 22, 11, -1,
      23, 24, 25, -1,
      26, 27, 28, -1,
      28, 27, 29, -1,
      28, 29, 30, -1,
      31, 32, 28, -1,
      28, 32, 33, -1,
      34, 35, 36, -1,
      36, 35, 37, -1,
      33, 38, 28, -1,
      28, 38, 37, -1,
      28, 37, 39, -1,
      39, 37, 35, -1,
      30, 40, 28, -1,
      28, 40, 41, -1,
      28, 41, 31, -1,
      42, 43, 44, -1,
      44, 43, 45, -1,
      44, 45, 46, -1,
      46, 45, 47, -1,
      46, 47, 48, -1,
      49, 50, 22, -1,
      22, 50, 51, -1,
      22, 51, 11, -1,
      11, 51, 52, -1,
      11, 52, 12, -1,
      12, 52, 53, -1,
      12, 53, 28, -1,
      28, 53, 54, -1,
      28, 54, 26, -1,
      48, 55, 46, -1,
      46, 55, 56, -1,
      46, 56, 57, -1,
      57, 56, 58, -1,
      57, 58, 59, -1,
      24, 60, 25, -1,
      25, 60, 61, -1,
      25, 61, 62, -1,
      62, 49, 25, -1,
      25, 49, 22, -1,
      25, 22, 63, -1,
      63, 22, 64, -1,
      63, 64, 44, -1,
      44, 64, 65, -1,
      44, 65, 42, -1,
      58, 66, 59, -1,
      59, 66, 67, -1,
      59, 67, 25, -1,
      25, 67, 68, -1,
      25, 68, 23, -1,
      69, 70, 71, -1,
      71, 70, 72, -1,
      73, 74, 71, -1,
      75, 76, 77, -1,
      77, 78, 75, -1,
      75, 78, 79, -1,
      75, 79, 80, -1,
      81, 82, 83, -1,
      83, 82, 3, -1,
      83, 3, 84, -1,
      85, 84, 72, -1,
      72, 84, 3, -1,
      72, 3, 71, -1,
      71, 3, 8, -1,
      71, 8, 86, -1,
      87, 88, 84, -1,
      80, 69, 75, -1,
      75, 69, 71, -1,
      75, 71, 89, -1,
      89, 71, 74, -1,
      89, 74, 90, -1,
      90, 74, 91, -1,
      92, 93, 94, -1,
      94, 93, 95, -1,
      73, 87, 96, -1,
      96, 87, 84, -1,
      96, 84, 94, -1,
      94, 84, 85, -1,
      94, 85, 92, -1,
      95, 97, 94, -1,
      94, 97, 98, -1,
      94, 98, 99, -1,
      99, 100, 94, -1,
      94, 100, 101, -1,
      94, 101, 75, -1,
      75, 101, 102, -1,
      75, 102, 76, -1,
      103, 104, 105, -1,
      105, 104, 106, -1,
      103, 105, 71, -1,
      71, 105, 107, -1,
      71, 107, 108, -1,
      108, 0, 71, -1,
      71, 0, 2, -1,
      71, 2, 73, -1,
      73, 2, 109, -1,
      73, 109, 87, -1,
      110, 111, 112, -1,
      112, 111, 103, -1,
      112, 103, 113, -1,
      113, 103, 71, -1,
      86, 10, 71, -1,
      71, 10, 15, -1,
      71, 15, 113, -1,
      113, 15, 114, -1,
      113, 114, 115, -1,
      43, 116, 45, -1,
      45, 116, 117, -1,
      45, 117, 115, -1,
      115, 117, 118, -1,
      115, 118, 113, -1,
      119, 6, 4, -1,
      120, 65, 64, -1,
      121, 122, 120, -1,
      4, 121, 119, -1,
      119, 121, 120, -1,
      119, 120, 123, -1,
      123, 120, 64, -1,
      124, 125, 126, -1,
      118, 117, 127, -1,
      127, 117, 124, -1,
      127, 124, 128, -1,
      128, 124, 126, -1,
      128, 126, 110, -1,
      110, 126, 111, -1,
      129, 106, 104, -1,
      130, 0, 108, -1,
      131, 132, 130, -1,
      104, 131, 129, -1,
      129, 131, 130, -1,
      129, 130, 133, -1,
      133, 130, 108, -1,
      134, 135, 136, -1,
      88, 87, 137, -1,
      137, 87, 134, -1,
      137, 134, 138, -1,
      138, 134, 136, -1,
      138, 136, 81, -1,
      81, 136, 82, -1,
      136, 139, 82, -1,
      82, 139, 140, -1,
      141, 121, 142, -1,
      142, 121, 4, -1,
      142, 4, 140, -1,
      140, 4, 3, -1,
      140, 3, 82, -1,
      143, 144, 131, -1,
      126, 145, 111, -1,
      111, 145, 146, -1,
      111, 146, 103, -1,
      103, 146, 143, -1,
      103, 143, 104, -1,
      104, 143, 131, -1,
      147, 122, 148, -1,
      148, 122, 121, -1,
      148, 121, 149, -1,
      149, 121, 141, -1,
      150, 132, 151, -1,
      151, 132, 131, -1,
      151, 131, 152, -1,
      152, 131, 144, -1,
      153, 139, 154, -1,
      154, 139, 136, -1,
      154, 136, 155, -1,
      155, 136, 135, -1,
      156, 145, 157, -1,
      157, 145, 126, -1,
      157, 126, 158, -1,
      158, 126, 125, -1,
      42, 159, 43, -1,
      43, 159, 160, -1,
      43, 160, 116, -1,
      161, 109, 162, -1,
      162, 109, 2, -1,
      162, 2, 1, -1,
      162, 1, 130, -1,
      130, 1, 0, -1,
      124, 117, 160, -1,
      160, 117, 116, -1,
      159, 42, 120, -1,
      120, 42, 65, -1,
      134, 87, 161, -1,
      161, 87, 109, -1,
    ]
  }
}

Shape {
  appearance Appearance {
    material Material {
      diffuseColor 0.0588 0.2157 0.0000
      specularColor 0.0314 0.1059 0.0000
      ambientIntensity 0.2
      transparency 0.0000
      shininess 0.5
    }
  }
  geometry IndexedFaceSet {
    ccw TRUE
    solid FALSE
    coord DEF co Coordinate {
      point [
        0.787402 0.511811 0.177165,
        0.787402 -0.511811 0.177165,
        -0.787402 -0.511811 0.177165,
        -0.787402 0.511811 0.177165,
        -0.413386 0.885827 0.177165,
        0.413386 0.885827 0.177165,
        -0.413386 -0.885827 0.177165,
        0.413386 -0.885827 0.177165,
        0.885827 0.511811 0.177165,
        0.885827 -0.511811 0.177165,
        -0.885827 0.511811 0.177165,
        -0.885827 -0.511811 0.177165,
        -0.565267 -0.277982 0.177165,
        -0.598373 -0.196850 0.177165,
        -0.688976 -0.196850 0.177165,
        0.565267 0.277982 0.177165,
        0.598373 0.196850 0.177165,
        0.688976 0.196850 0.177165,
        0.413386 -0.819390 0.177165,
        0.255509 0.575774 0.177165,
        0.332937 0.534746 0.177165,
        0.413386 0.819390 0.177165,
        0.087414 -0.623826 0.177165,
        -0.000000 -0.629921 0.177165,
        -0.413386 -0.819390 0.177165,
        -0.087414 -0.623826 0.177165,
        -0.173137 -0.605660 0.177165,
        0.173137 -0.605660 0.177165,
        0.255509 -0.575774 0.177165,
        -0.255509 0.575774 0.177165,
        -0.173137 0.605660 0.177165,
        -0.413386 0.819390 0.177165,
        -0.255509 -0.575774 0.177165,
        -0.332937 -0.534746 0.177165,
        -0.728346 -0.819390 0.177165,
        0.728346 0.819390 0.177165,
        -0.728346 0.819390 0.177165,
        -0.728346 0.511811 0.177165,
        -0.521222 0.353735 0.177165,
        0.728346 -0.819390 0.177165,
        0.728346 -0.511811 0.177165,
        0.521222 -0.353735 0.177165,
        0.598373 -0.196850 0.177165,
        0.565267 -0.277982 0.177165,
        0.403922 0.483371 0.177165,
        0.467092 0.422642 0.177165,
        0.728346 0.511811 0.177165,
        0.521222 0.353735 0.177165,
        0.688976 -0.196850 0.177165,
        -0.598373 0.196850 0.177165,
        -0.565267 0.277982 0.177165,
        -0.403922 -0.483371 0.177165,
        -0.467092 -0.422642 0.177165,
        -0.728346 -0.511811 0.177165,
        -0.521222 -0.353735 0.177165,
        -0.688976 0.196850 0.177165,
        -0.087414 0.623826 0.177165,
        0.000000 0.629921 0.177165,
        0.087414 0.623826 0.177165,
        0.173137 0.605660 0.177165,
        0.467092 -0.422642 0.177165,
        0.403922 -0.483371 0.177165,
        0.332937 -0.534746 0.177165,
        -0.467092 0.422642 0.177165,
        -0.403922 0.483371 0.177165,
        -0.332937 0.534746 0.177165,
      ]
    }
    coordIndex [
      12, 13, 14, -1,
      15, 16, 17, -1,
      6, 7, 18, -1,
      19, 20, 21, -1,
      22, 23, 24, -1,
      24, 23, 25, -1,
      24, 25, 26, -1,
      6, 18, 24, -1,
      22, 24, 27, -1,
      27, 24, 18, -1,
      27, 18, 28, -1,
      29, 30, 31, -1,
      26, 32, 24, -1,
      24, 32, 33, -1,
      24, 33, 34, -1,
      21, 20, 35, -1,
      31, 30, 4, -1,
      36, 37, 38, -1,
      39, 40, 41, -1,
      42, 43, 9, -1,
      20, 44, 35, -1,
      35, 44, 45, -1,
      35, 45, 46, -1,
      46, 45, 47, -1,
      46, 47, 0, -1,
      0, 47, 15, -1,
      0, 15, 8, -1,
      8, 15, 17, -1,
      8, 17, 9, -1,
      9, 17, 48, -1,
      9, 48, 42, -1,
      49, 50, 10, -1,
      33, 51, 34, -1,
      34, 51, 52, -1,
      34, 52, 53, -1,
      53, 52, 54, -1,
      53, 54, 2, -1,
      2, 54, 12, -1,
      2, 12, 11, -1,
      11, 12, 14, -1,
      11, 14, 10, -1,
      10, 14, 55, -1,
      10, 55, 49, -1,
      41, 40, 43, -1,
      43, 40, 1, -1,
      43, 1, 9, -1,
      30, 56, 4, -1,
      4, 56, 57, -1,
      4, 57, 5, -1,
      5, 57, 58, -1,
      5, 58, 21, -1,
      21, 58, 59, -1,
      21, 59, 19, -1,
      38, 37, 50, -1,
      50, 37, 3, -1,
      50, 3, 10, -1,
      41, 60, 39, -1,
      39, 60, 61, -1,
      39, 61, 18, -1,
      18, 61, 62, -1,
      18, 62, 28, -1,
      38, 63, 36, -1,
      36, 63, 64, -1,
      36, 64, 31, -1,
      31, 64, 65, -1,
      31, 65, 29, -1,
    ]
  }
}

Shape {
  appearance Appearance {
    material Material {
      diffuseColor 0.1373 0.4549 0.8784
      specularColor 0.0667 0.2275 0.4392
      ambientIntensity 0.2
      transparency 0.0000
      shininess 0.5
    }
  }
  geometry IndexedFaceSet {
    ccw TRUE
    solid FALSE
    coord DEF co Coordinate {
      point [
        0.787402 0.511811 0.177165,
        0.787402 0.511811 0.216535,
        0.787402 -0.511811 0.177165,
        0.787402 -0.511811 0.216535,
        -0.787402 -0.511811 0.177165,
        -0.787402 -0.511811 0.216535,
        -0.787402 0.511811 0.177165,
        -0.787402 0.511811 0.216535,
        -0.413386 0.885827 0.216535,
        -0.413386 0.885827 0.177165,
        0.413386 0.885827 0.216535,
        0.413386 0.885827 0.177165,
        -0.413386 -0.885827 0.177165,
        -0.413386 -0.885827 0.216535,
        0.413386 -0.885827 0.216535,
        0.413386 -0.885827 0.177165,
        0.728346 0.511811 0.216535,
        0.728346 0.819390 0.216535,
        0.413386 0.819390 0.216535,
        -0.728346 -0.511811 0.216535,
        -0.728346 -0.819390 0.216535,
        -0.413386 -0.819390 0.216535,
        -0.413386 0.819390 0.216535,
        -0.728346 0.819390 0.216535,
        -0.728346 0.511811 0.216535,
        0.413386 -0.819390 0.216535,
        0.728346 -0.819390 0.216535,
        0.728346 -0.511811 0.216535,
        0.413386 -0.819390 0.177165,
        0.413386 0.819390 0.177165,
        -0.413386 -0.819390 0.177165,
        -0.413386 0.819390 0.177165,
        -0.728346 -0.819390 0.177165,
        0.728346 0.819390 0.177165,
        -0.728346 0.819390 0.177165,
        -0.728346 0.511811 0.177165,
        0.728346 -0.819390 0.177165,
        0.728346 -0.511811 0.177165,
        0.728346 0.511811 0.177165,
        -0.728346 -0.511811 0.177165,
      ]
    }
    coordIndex [
      38, 0, 16, -1,
      16, 0, 1, -1,
      33, 38, 17, -1,
      17, 38, 16, -1,
      29, 33, 18, -1,
      18, 33, 17, -1,
      11, 29, 10, -1,
      10, 29, 18, -1,
      39, 4, 19, -1,
      19, 4, 5, -1,
      32, 39, 20, -1,
      20, 39, 19, -1,
      30, 32, 21, -1,
      21, 32, 20, -1,
      12, 30, 13, -1,
      13, 30, 21, -1,
      31, 9, 22, -1,
      22, 9, 8, -1,
      34, 31, 23, -1,
      23, 31, 22, -1,
      35, 34, 24, -1,
      24, 34, 23, -1,
      6, 35, 7, -1,
      7, 35, 24, -1,
      28, 15, 25, -1,
      25, 15, 14, -1,
      36, 28, 26, -1,
      26, 28, 25, -1,
      37, 36, 27, -1,
      27, 36, 26, -1,
      2, 37, 3, -1,
      3, 37, 27, -1,
    ]
  }
}

Shape {
  appearance Appearance {
    material Material {
      diffuseColor 1.0000 1.0000 1.0000
      specularColor 0.8784 0.8784 0.8784
      ambientIntensity 0.2
      transparency 0.0000
      shininess 0.5
    }
  }
  geometry IndexedFaceSet {
    ccw TRUE
    solid FALSE
    coord DEF co Coordinate {
      point [
        0.386404 0.787402 -0.000000,
        0.787402 0.787402 0.000000,
        0.386404 0.590551 -0.000000,
        0.787402 0.590551 0.000000,
        -0.787402 0.787402 0.000000,
        -0.386404 0.787402 0.000000,
        -0.386404 0.590551 0.000000,
        -0.787402 0.590551 0.000000,
        -0.386404 -0.787402 0.000000,
        -0.787402 -0.787402 0.000000,
        -0.386404 -0.590551 0.000000,
        -0.787402 -0.590551 0.000000,
        0.787402 -0.787402 0.000000,
        0.386404 -0.787402 -0.000000,
        0.386404 -0.590551 -0.000000,
        0.787402 -0.590551 0.000000,
        0.787402 0.787402 0.035433,
        0.787402 0.590551 0.035433,
        0.787402 -0.590551 0.035433,
        0.787402 -0.787402 0.035433,
        -0.787402 -0.787402 0.035433,
        -0.787402 -0.590551 0.035433,
        -0.787402 0.590551 0.035433,
        -0.787402 0.787402 0.035433,
        -0.386404 0.590551 -0.003937,
        -0.386404 0.787402 -0.003937,
        -0.915354 0.787402 -0.003937,
        -0.915354 0.787402 0.035433,
        -0.915354 0.590551 0.035433,
        -0.915354 0.590551 -0.003937,
        -0.386404 -0.787402 -0.003937,
        -0.386404 -0.590551 -0.003937,
        -0.915354 -0.590551 -0.003937,
        -0.915354 -0.590551 0.035433,
        -0.915354 -0.787402 0.035433,
        -0.915354 -0.787402 -0.003937,
        0.386404 -0.590551 -0.003937,
        0.386404 -0.787402 -0.003937,
        0.915354 -0.590551 0.035433,
        0.915354 -0.590551 -0.003937,
        0.915354 -0.787402 -0.003937,
        0.915354 -0.787402 0.035433,
        0.386404 0.787402 -0.003937,
        0.386404 0.590551 -0.003937,
        0.915354 0.787402 0.035433,
        0.915354 0.787402 -0.003937,
        0.915354 0.590551 -0.003937,
        0.915354 0.590551 0.035433,
      ]
    }
    coordIndex [
      6, 24, 5, -1,
      5, 24, 25, -1,
      5, 25, 4, -1,
      4, 25, 26, -1,
      4, 26, 23, -1,
      23, 26, 27, -1,
      24, 6, 7, -1,
      22, 28, 7, -1,
      7, 28, 29, -1,
      7, 29, 24, -1,
      23, 27, 22, -1,
      22, 27, 28, -1,
      27, 26, 28, -1,
      28, 26, 29, -1,
      25, 24, 26, -1,
      26, 24, 29, -1,
      8, 30, 10, -1,
      10, 30, 31, -1,
      10, 31, 11, -1,
      11, 31, 32, -1,
      11, 32, 21, -1,
      21, 32, 33, -1,
      30, 8, 9, -1,
      20, 34, 9, -1,
      9, 34, 35, -1,
      9, 35, 30, -1,
      21, 33, 20, -1,
      20, 33, 34, -1,
      33, 32, 34, -1,
      34, 32, 35, -1,
      31, 30, 32, -1,
      32, 30, 35, -1,
      14, 36, 13, -1,
      13, 36, 37, -1,
      36, 14, 15, -1,
      18, 38, 15, -1,
      15, 38, 39, -1,
      15, 39, 36, -1,
      13, 37, 12, -1,
      12, 37, 40, -1,
      12, 40, 19, -1,
      19, 40, 41, -1,
      41, 38, 19, -1,
      19, 38, 18, -1,
      41, 40, 38, -1,
      38, 40, 39, -1,
      39, 40, 36, -1,
      36, 40, 37, -1,
      0, 42, 2, -1,
      2, 42, 43, -1,
      42, 0, 1, -1,
      16, 44, 1, -1,
      1, 44, 45, -1,
      1, 45, 42, -1,
      2, 43, 3, -1,
      3, 43, 46, -1,
      3, 46, 17, -1,
      17, 46, 47, -1,
      47, 44, 17, -1,
      17, 44, 16, -1,
      47, 46, 44, -1,
      44, 46, 45, -1,
      45, 46, 42, -1,
      42, 46, 43, -1,
    ]
  }
}

Shape {
  appearance Appearance {
    material Material {
      diffuseColor 0.2235 0.2235 0.2235
      specularColor 0.1137 0.1137 0.1137
      ambientIntensity 0.2
      transparency 0.0000
      shininess 0.5
    }
  }
  geometry IndexedFaceSet {
    ccw TRUE
    solid FALSE
    coord DEF co Coordinate {
      point [
        -0.565267 -0.277982 0.177165,
        -0.598373 -0.196850 0.177165,
        -0.688976 -0.196850 0.177165,
        0.565267 0.277982 0.177165,
        0.598373 0.196850 0.177165,
        0.688976 0.196850 0.177165,
        0.255509 0.575774 0.177165,
        0.332937 0.534746 0.177165,
        0.087414 -0.623826 0.177165,
        -0.000000 -0.629921 0.177165,
        -0.087414 -0.623826 0.177165,
        -0.173137 -0.605660 0.177165,
        0.173137 -0.605660 0.177165,
        0.255509 -0.575774 0.177165,
        -0.255509 0.575774 0.177165,
        -0.173137 0.605660 0.177165,
        -0.255509 -0.575774 0.177165,
        -0.332937 -0.534746 0.177165,
        -0.521222 0.353735 0.177165,
        0.521222 -0.353735 0.177165,
        0.598373 -0.196850 0.177165,
        0.565267 -0.277982 0.177165,
        0.403922 0.483371 0.177165,
        0.467092 0.422642 0.177165,
        0.521222 0.353735 0.177165,
        0.688976 -0.196850 0.177165,
        -0.598373 0.196850 0.177165,
        -0.565267 0.277982 0.177165,
        -0.403922 -0.483371 0.177165,
        -0.467092 -0.422642 0.177165,
        -0.521222 -0.353735 0.177165,
        -0.688976 0.196850 0.177165,
        -0.087414 0.623826 0.177165,
        0.000000 0.629921 0.177165,
        0.087414 0.623826 0.177165,
        0.173137 0.605660 0.177165,
        0.467092 -0.422642 0.177165,
        0.403922 -0.483371 0.177165,
        0.332937 -0.534746 0.177165,
        -0.467092 0.422642 0.177165,
        -0.403922 0.483371 0.177165,
        -0.332937 0.534746 0.177165,
        -0.580587 0.244375 0.137885,
        -0.565180 0.277942 0.137773,
        -0.538969 0.326057 0.137709,
        -0.521065 0.353633 0.137729,
        0.565106 0.277898 0.137774,
        0.568269 0.271793 0.137785,
        0.582016 0.240521 0.137898,
        0.584468 0.234942 0.137918,
        0.598373 0.196850 0.137944,
        0.529185 0.341707 0.137718,
        0.541826 0.320694 0.137719,
        0.549829 0.307390 0.137719,
        0.466916 0.422478 0.137832,
        0.473760 0.415154 0.137824,
        0.506354 0.374709 0.137758,
        0.516732 0.359707 0.137740,
        0.520980 0.353567 0.137732,
        0.499491 0.383810 0.137773,
        0.387549 0.496530 0.137841,
        0.403723 0.483130 0.137851,
        0.406244 0.481041 0.137852,
        0.417086 0.472059 0.137859,
        0.430610 0.459321 0.137857,
        0.446272 0.444569 0.137856,
        0.332787 0.534499 0.137794,
        0.344300 0.527502 0.137802,
        0.344488 0.527377 0.137802,
        0.353775 0.521195 0.137810,
        0.386244 0.497610 0.137840,
        0.255380 0.575483 0.137781,
        0.273971 0.567222 0.137773,
        0.285456 0.561215 0.137775,
        0.309646 0.548562 0.137779,
        0.199770 0.597405 0.137814,
        0.237331 0.583502 0.137788,
        0.086122 0.623699 0.137843,
        0.087369 0.623517 0.137843,
        0.110617 0.620133 0.137845,
        0.150290 0.611730 0.137839,
        0.161324 0.608913 0.137835,
        0.172244 0.605644 0.137829,
        0.173059 0.605401 0.137828,
        -0.000004 0.629695 0.137837,
        0.030813 0.629167 0.137838,
        0.070777 0.625932 0.137843,
        -0.087377 0.623538 0.137843,
        -0.086122 0.623700 0.137843,
        -0.060667 0.626993 0.137841,
        -0.049320 0.627987 0.137839,
        -0.009233 0.629854 0.137836,
        -0.173094 0.605497 0.137831,
        -0.172244 0.605720 0.137831,
        -0.140398 0.614076 0.137842,
        -0.100884 0.621790 0.137844,
        -0.255505 0.575765 0.137783,
        -0.254406 0.576263 0.137784,
        -0.217196 0.591293 0.137806,
        -0.179180 0.603900 0.137829,
        -0.285369 0.561215 0.137780,
        -0.301013 0.553346 0.137780,
        -0.264785 0.571568 0.137780,
        -0.258366 0.574471 0.137783,
        -0.403843 0.483281 0.137854,
        -0.400672 0.486069 0.137853,
        -0.387549 0.496203 0.137843,
        -0.368973 0.510548 0.137828,
        -0.344488 0.527083 0.137807,
        -0.335746 0.532987 0.137799,
        -0.332888 0.534663 0.137798,
        -0.439050 0.451703 0.137859,
        -0.430809 0.459570 0.137862,
        -0.430610 0.459744 0.137862,
        -0.406389 0.481041 0.137855,
        -0.473671 0.414890 0.137821,
        -0.467204 0.422518 0.137833,
        -0.467088 0.422638 0.137833,
        -0.517162 0.359644 0.137733,
        -0.516732 0.360222 0.137734,
        -0.493238 0.391813 0.137785,
        -0.563816 0.280913 0.137763,
        -0.558633 0.291083 0.137741,
        -0.541984 0.320694 0.137714,
        -0.598373 0.196850 0.137952,
        -0.594981 0.206878 0.138058,
        -0.582067 0.240521 0.137903,
        0.688976 0.196850 0.137965,
        0.628394 0.196850 0.137509,
        0.602853 0.196850 0.137880,
        0.688976 0.160347 0.137896,
        0.688976 0.095198 0.137773,
        0.688976 0.000000 0.137836,
        0.688976 -0.160347 0.137942,
        0.688976 -0.196850 0.137966,
        0.602854 -0.196850 0.137916,
        0.598373 -0.196850 0.137944,
        0.658944 -0.196850 0.137569,
        0.538970 -0.326056 0.137713,
        0.521065 -0.353633 0.137733,
        0.258366 -0.574471 0.137781,
        0.255505 -0.575765 0.137782,
        -0.559793 -0.288155 0.137765,
        -0.565106 -0.277898 0.137787,
        -0.568269 -0.271793 0.137801,
        -0.584468 -0.234942 0.137946,
        -0.598373 -0.196850 0.137963,
        -0.529186 -0.341706 0.137711,
        -0.541826 -0.320694 0.137718,
        -0.549830 -0.307389 0.137722,
        -0.466916 -0.422478 0.137821,
        -0.473760 -0.415153 0.137813,
        -0.506355 -0.374707 0.137747,
        -0.516732 -0.359707 0.137731,
        -0.520980 -0.353567 0.137724,
        -0.499491 -0.383809 0.137761,
        -0.387549 -0.496530 0.137846,
        -0.403723 -0.483130 0.137852,
        -0.406244 -0.481041 0.137853,
        -0.417087 -0.472059 0.137858,
        -0.430610 -0.459321 0.137853,
        -0.446273 -0.444569 0.137848,
        -0.332787 -0.534499 0.137808,
        -0.344302 -0.527501 0.137815,
        -0.344488 -0.527377 0.137815,
        -0.353775 -0.521194 0.137821,
        -0.386244 -0.497610 0.137845,
        -0.255380 -0.575483 0.137797,
        -0.273972 -0.567222 0.137791,
        -0.285456 -0.561215 0.137792,
        -0.309646 -0.548561 0.137795,
        -0.199770 -0.597405 0.137825,
        -0.237331 -0.583502 0.137803,
        -0.086122 -0.623699 0.137843,
        -0.087369 -0.623517 0.137843,
        -0.110617 -0.620133 0.137846,
        -0.150290 -0.611730 0.137843,
        -0.161325 -0.608913 0.137841,
        -0.172244 -0.605644 0.137836,
        -0.173059 -0.605401 0.137836,
        0.000004 -0.629695 0.137835,
        -0.030813 -0.629167 0.137835,
        -0.070777 -0.625932 0.137841,
        0.087377 -0.623538 0.137844,
        0.086122 -0.623700 0.137843,
        0.060667 -0.626993 0.137840,
        0.049320 -0.627987 0.137839,
        0.009232 -0.629854 0.137835,
        0.173094 -0.605497 0.137831,
        0.172244 -0.605720 0.137831,
        0.140398 -0.614076 0.137843,
        0.100884 -0.621790 0.137845,
        0.254405 -0.576263 0.137782,
        0.217196 -0.591293 0.137805,
        0.179180 -0.603900 0.137829,
        0.301013 -0.553346 0.137778,
        0.264785 -0.571568 0.137778,
        0.403843 -0.483281 0.137850,
        0.400672 -0.486069 0.137849,
        0.387549 -0.496203 0.137838,
        0.368973 -0.510548 0.137824,
        0.344488 -0.527083 0.137803,
        0.335746 -0.532987 0.137796,
        0.332888 -0.534663 0.137794,
        0.439051 -0.451703 0.137856,
        0.430809 -0.459570 0.137858,
        0.430610 -0.459744 0.137858,
        0.406389 -0.481041 0.137850,
        0.473671 -0.414890 0.137821,
        0.467204 -0.422518 0.137832,
        0.467088 -0.422638 0.137833,
        0.517163 -0.359644 0.137737,
        0.516732 -0.360222 0.137738,
        0.493238 -0.391812 0.137787,
        0.565180 -0.277942 0.137772,
        0.563816 -0.280913 0.137762,
        0.559793 -0.288807 0.137746,
        0.558634 -0.291082 0.137742,
        0.541984 -0.320694 0.137717,
        0.594981 -0.206878 0.138045,
        0.580587 -0.244374 0.137878,
        -0.688976 -0.196850 0.137986,
        -0.629128 -0.196850 0.137526,
        -0.602853 -0.196850 0.137900,
        -0.688976 -0.160347 0.137907,
        -0.688976 -0.086874 0.137748,
        -0.688976 -0.000000 0.137815,
        -0.688976 0.160347 0.137939,
        -0.688976 0.196850 0.137967,
        -0.602854 0.196850 0.137923,
        -0.658707 0.196850 0.137567,
      ]
    }
    coordIndex [
      42, 43, 27, -1,
      44, 45, 18, -1,
      46, 47, 3, -1,
      3, 47, 48, -1,
      3, 48, 4, -1,
      4, 48, 49, -1,
      4, 49, 50, -1,
      51, 52, 24, -1,
      24, 52, 3, -1,
      3, 52, 53, -1,
      3, 53, 46, -1,
      23, 54, 55, -1,
      56, 57, 24, -1,
      24, 57, 58, -1,
      24, 58, 51, -1,
      23, 55, 24, -1,
      24, 55, 59, -1,
      24, 59, 56, -1,
      60, 61, 22, -1,
      22, 61, 62, -1,
      62, 63, 22, -1,
      22, 63, 64, -1,
      22, 64, 23, -1,
      23, 64, 65, -1,
      23, 65, 54, -1,
      7, 66, 67, -1,
      67, 68, 7, -1,
      7, 68, 69, -1,
      7, 69, 22, -1,
      22, 69, 70, -1,
      22, 70, 60, -1,
      71, 72, 6, -1,
      6, 72, 73, -1,
      6, 73, 7, -1,
      7, 73, 74, -1,
      7, 74, 66, -1,
      35, 75, 6, -1,
      6, 75, 76, -1,
      6, 76, 71, -1,
      77, 78, 34, -1,
      34, 78, 79, -1,
      34, 79, 35, -1,
      35, 79, 80, -1,
      35, 80, 81, -1,
      81, 82, 35, -1,
      35, 82, 83, -1,
      35, 83, 75, -1,
      33, 84, 85, -1,
      33, 85, 34, -1,
      34, 85, 86, -1,
      34, 86, 77, -1,
      32, 87, 88, -1,
      88, 89, 32, -1,
      32, 89, 90, -1,
      32, 90, 33, -1,
      33, 90, 91, -1,
      33, 91, 84, -1,
      92, 93, 15, -1,
      15, 93, 94, -1,
      15, 94, 32, -1,
      32, 94, 95, -1,
      32, 95, 87, -1,
      96, 97, 14, -1,
      14, 97, 98, -1,
      14, 98, 15, -1,
      15, 98, 99, -1,
      15, 99, 92, -1,
      100, 14, 101, -1,
      101, 14, 41, -1,
      100, 102, 14, -1,
      14, 102, 103, -1,
      14, 103, 96, -1,
      104, 105, 40, -1,
      40, 105, 106, -1,
      40, 106, 41, -1,
      41, 106, 107, -1,
      41, 107, 108, -1,
      108, 109, 41, -1,
      41, 109, 110, -1,
      41, 110, 101, -1,
      39, 111, 40, -1,
      40, 111, 112, -1,
      112, 113, 40, -1,
      40, 113, 114, -1,
      40, 114, 104, -1,
      115, 116, 39, -1,
      39, 116, 117, -1,
      39, 117, 111, -1,
      45, 118, 18, -1,
      18, 118, 119, -1,
      18, 119, 39, -1,
      39, 119, 120, -1,
      39, 120, 115, -1,
      43, 121, 27, -1,
      27, 121, 122, -1,
      27, 122, 18, -1,
      18, 122, 123, -1,
      18, 123, 44, -1,
      26, 124, 125, -1,
      26, 125, 27, -1,
      27, 125, 126, -1,
      27, 126, 42, -1,
      127, 5, 128, -1,
      128, 5, 4, -1,
      128, 4, 129, -1,
      129, 4, 50, -1,
      5, 127, 130, -1,
      130, 131, 5, -1,
      5, 131, 132, -1,
      5, 132, 25, -1,
      25, 132, 133, -1,
      25, 133, 134, -1,
      135, 136, 20, -1,
      135, 20, 137, -1,
      137, 20, 25, -1,
      137, 25, 134, -1,
      138, 139, 19, -1,
      140, 141, 13, -1,
      142, 143, 0, -1,
      0, 143, 144, -1,
      0, 144, 1, -1,
      1, 144, 145, -1,
      1, 145, 146, -1,
      147, 148, 30, -1,
      30, 148, 0, -1,
      0, 148, 149, -1,
      0, 149, 142, -1,
      29, 150, 151, -1,
      152, 153, 30, -1,
      30, 153, 154, -1,
      30, 154, 147, -1,
      29, 151, 30, -1,
      30, 151, 155, -1,
      30, 155, 152, -1,
      156, 157, 28, -1,
      28, 157, 158, -1,
      158, 159, 28, -1,
      28, 159, 160, -1,
      28, 160, 29, -1,
      29, 160, 161, -1,
      29, 161, 150, -1,
      17, 162, 163, -1,
      163, 164, 17, -1,
      17, 164, 165, -1,
      17, 165, 28, -1,
      28, 165, 166, -1,
      28, 166, 156, -1,
      167, 168, 16, -1,
      16, 168, 169, -1,
      16, 169, 17, -1,
      17, 169, 170, -1,
      17, 170, 162, -1,
      11, 171, 16, -1,
      16, 171, 172, -1,
      16, 172, 167, -1,
      173, 174, 10, -1,
      10, 174, 175, -1,
      10, 175, 11, -1,
      11, 175, 176, -1,
      11, 176, 177, -1,
      177, 178, 11, -1,
      11, 178, 179, -1,
      11, 179, 171, -1,
      9, 180, 181, -1,
      9, 181, 10, -1,
      10, 181, 182, -1,
      10, 182, 173, -1,
      8, 183, 184, -1,
      184, 185, 8, -1,
      8, 185, 186, -1,
      8, 186, 9, -1,
      9, 186, 187, -1,
      9, 187, 180, -1,
      188, 189, 12, -1,
      12, 189, 190, -1,
      12, 190, 8, -1,
      8, 190, 191, -1,
      8, 191, 183, -1,
      141, 192, 13, -1,
      13, 192, 193, -1,
      13, 193, 12, -1,
      12, 193, 194, -1,
      12, 194, 188, -1,
      38, 195, 13, -1,
      13, 195, 196, -1,
      13, 196, 140, -1,
      197, 198, 37, -1,
      37, 198, 199, -1,
      37, 199, 38, -1,
      38, 199, 200, -1,
      38, 200, 201, -1,
      201, 202, 38, -1,
      38, 202, 203, -1,
      38, 203, 195, -1,
      36, 204, 37, -1,
      37, 204, 205, -1,
      205, 206, 37, -1,
      37, 206, 207, -1,
      37, 207, 197, -1,
      208, 209, 36, -1,
      36, 209, 210, -1,
      36, 210, 204, -1,
      139, 211, 19, -1,
      19, 211, 212, -1,
      19, 212, 36, -1,
      36, 212, 213, -1,
      36, 213, 208, -1,
      21, 214, 215, -1,
      215, 216, 21, -1,
      21, 216, 217, -1,
      21, 217, 19, -1,
      19, 217, 218, -1,
      19, 218, 138, -1,
      20, 136, 219, -1,
      20, 219, 21, -1,
      21, 219, 220, -1,
      21, 220, 214, -1,
      221, 2, 222, -1,
      222, 2, 1, -1,
      222, 1, 223, -1,
      223, 1, 146, -1,
      2, 221, 224, -1,
      224, 225, 2, -1,
      2, 225, 226, -1,
      2, 226, 31, -1,
      31, 226, 227, -1,
      31, 227, 228, -1,
      229, 124, 26, -1,
      229, 26, 230, -1,
      230, 26, 31, -1,
      230, 31, 228, -1,
    ]
  }
}

Shape {
  appearance Appearance {
    material Material {
      diffuseColor 1.0000 1.0000 1.0000
      specularColor 0.8784 0.8784 0.8784
      ambientIntensity 0.2
      transparency 0.0000
      shininess 0.5
    }
  }
  geometry IndexedFaceSet {
    ccw TRUE
    solid FALSE
    coord DEF co Coordinate {
      point [
        -0.011274 0.033291 0.000000,
        -0.013194 -0.028164 0.000000,
        -0.011274 0.041934 0.000000,
        0.029056 -0.036806 0.000000,
        0.029056 0.041934 0.000000,
        0.044420 -0.024083 0.000000,
        0.044420 -0.032725 0.000000,
        0.052813 -0.036172 0.000000,
        0.060770 -0.037287 0.000000,
        0.018493 -0.001277 0.000000,
        0.018493 -0.028164 0.000000,
        -0.009354 -0.001277 0.000000,
        -0.009354 0.007365 0.000000,
        0.018493 0.007365 0.000000,
        0.018493 0.033291 0.000000,
        0.098839 0.021194 0.000000,
        0.094224 0.028556 0.000000,
        0.139484 0.041934 0.000000,
        0.070613 0.033381 0.000000,
        0.076507 0.031254 0.000000,
        0.045831 -0.024865 0.000000,
        0.081957 0.027608 0.000000,
        0.086712 0.022359 0.000000,
        0.092432 0.001724 0.000000,
        0.091635 -0.006801 0.000000,
        0.089496 -0.013573 0.000000,
        0.071974 -0.028301 0.000000,
        0.064630 -0.029124 0.000000,
        0.077712 -0.026189 0.000000,
        0.082544 -0.022931 0.000000,
        0.086239 -0.019033 0.000000,
        0.054178 -0.027964 0.000000,
        0.089958 0.016279 0.000000,
        0.092057 0.007850 0.000000,
        0.150047 -0.036806 0.000000,
        0.070716 -0.037287 0.000000,
        0.109717 -0.036806 0.000000,
        0.075789 -0.036761 0.000000,
        0.083421 -0.034133 0.000000,
        0.062950 0.042894 0.000000,
        0.053524 0.042244 0.000000,
        0.044420 0.039773 0.000000,
        0.044420 0.029211 0.000000,
        0.053289 0.033008 0.000000,
        0.062860 0.034252 0.000000,
        0.089755 -0.030089 0.000000,
        0.095669 -0.023863 0.000000,
        0.109717 -0.028164 0.000000,
        0.099864 -0.016376 0.000000,
        0.139484 -0.028164 0.000000,
        0.087115 0.035393 0.000000,
        0.079637 0.039698 0.000000,
        0.070859 0.042248 0.000000,
        0.150047 0.041934 0.000000,
        0.102234 -0.008041 0.000000,
        0.102995 0.001078 0.000000,
        0.101863 0.012273 0.000000,
        -0.049969 -0.036806 0.000000,
        -0.028559 -0.036806 0.000000,
        -0.028559 0.041934 0.000000,
        -0.168754 -0.036806 0.000000,
        -0.157231 -0.036806 0.000000,
        -0.097696 -0.036806 0.000000,
        -0.088003 -0.015226 0.000000,
        -0.083487 -0.022268 0.000000,
        -0.077006 -0.028474 0.000000,
        -0.068785 -0.033252 0.000000,
        -0.059712 -0.035956 0.000000,
        -0.050779 0.041934 0.000000,
        -0.013194 -0.036806 0.000000,
        -0.109219 -0.036806 0.000000,
        -0.116736 -0.014721 0.000000,
        -0.149265 -0.014721 0.000000,
        -0.062155 0.040718 0.000000,
        -0.071368 0.037483 0.000000,
        -0.127464 0.041934 0.000000,
        -0.079938 0.031739 0.000000,
        -0.138027 0.041934 0.000000,
        -0.080020 0.031667 0.000000,
        -0.085589 0.025493 0.000000,
        -0.089248 0.018721 0.000000,
        -0.091363 0.010963 0.000000,
        -0.091935 0.003554 0.000000,
        -0.090830 -0.006984 0.000000,
        0.063933 -0.037730 0.000000,
        0.066086 -0.037767 0.000000,
        -0.138027 0.041934 0.003937,
        -0.168754 -0.036806 0.003937,
        -0.157231 -0.036806 0.003937,
        -0.149265 -0.014721 0.003937,
        -0.116736 -0.014721 0.003937,
        -0.109219 -0.036806 0.003937,
        -0.097696 -0.036806 0.003937,
        -0.127464 0.041934 0.003937,
        -0.119392 -0.006079 0.003937,
        -0.145724 -0.006079 0.003937,
        -0.131140 0.026810 0.003937,
        -0.131898 0.029541 0.003937,
        -0.132400 0.032331 0.003937,
        -0.132655 0.032331 0.003937,
        -0.133169 0.029549 0.003937,
        -0.133870 0.026810 0.003937,
        -0.119392 -0.006079 0.000000,
        -0.145724 -0.006079 0.000000,
        -0.131140 0.026810 0.000000,
        -0.131898 0.029541 0.000000,
        -0.132400 0.032331 0.000000,
        -0.132655 0.032331 0.000000,
        -0.133169 0.029549 0.000000,
        -0.133870 0.026810 0.000000,
        -0.049969 -0.036806 0.003937,
        -0.028559 -0.036806 0.003937,
        -0.028559 0.041934 0.003937,
        -0.050779 0.041934 0.003937,
        -0.091935 0.003554 0.003937,
        -0.091363 0.010963 0.003937,
        -0.089248 0.018721 0.003937,
        -0.085589 0.025493 0.003937,
        -0.080020 0.031667 0.003937,
        -0.079938 0.031739 0.003937,
        -0.071368 0.037483 0.003937,
        -0.062155 0.040718 0.003937,
        -0.059712 -0.035956 0.003937,
        -0.068785 -0.033252 0.003937,
        -0.077006 -0.028474 0.003937,
        -0.083487 -0.022268 0.003937,
        -0.088003 -0.015226 0.003937,
        -0.090830 -0.006984 0.003937,
        -0.076130 0.022250 0.003937,
        -0.072305 0.026311 0.003937,
        -0.066554 0.030026 0.003937,
        -0.060054 0.032301 0.003937,
        -0.050734 0.033291 0.003937,
        -0.039121 0.033291 0.003937,
        -0.039121 -0.028164 0.003937,
        -0.050299 -0.028164 0.003937,
        -0.058606 -0.027391 0.003937,
        -0.065232 -0.025323 0.003937,
        -0.070602 -0.022134 0.003937,
        -0.075019 -0.017772 0.003937,
        -0.078340 -0.012343 0.003937,
        -0.080649 -0.004941 0.003937,
        -0.081372 0.003329 0.003937,
        -0.080703 0.011165 0.003937,
        -0.078865 0.017393 0.003937,
        -0.050734 0.033291 0.000000,
        -0.039121 0.033291 0.000000,
        -0.060054 0.032301 0.000000,
        -0.066554 0.030026 0.000000,
        -0.072305 0.026311 0.000000,
        -0.076130 0.022250 0.000000,
        -0.078865 0.017393 0.000000,
        -0.080703 0.011165 0.000000,
        -0.081372 0.003329 0.000000,
        -0.080649 -0.004941 0.000000,
        -0.078340 -0.012343 0.000000,
        -0.075019 -0.017772 0.000000,
        -0.070602 -0.022134 0.000000,
        -0.065232 -0.025323 0.000000,
        -0.058606 -0.027391 0.000000,
        -0.050299 -0.028164 0.000000,
        -0.039121 -0.028164 0.000000,
        -0.013194 -0.028164 0.003937,
        -0.013194 -0.036806 0.003937,
        0.029056 -0.036806 0.003937,
        0.029056 0.041934 0.003937,
        -0.011274 0.041934 0.003937,
        -0.011274 0.033291 0.003937,
        0.018493 0.033291 0.003937,
        0.018493 0.007365 0.003937,
        -0.009354 0.007365 0.003937,
        -0.009354 -0.001277 0.003937,
        0.018493 -0.001277 0.003937,
        0.018493 -0.028164 0.003937,
        0.044420 -0.024083 0.003937,
        0.044420 -0.032725 0.003937,
        0.052813 -0.036172 0.003937,
        0.066086 -0.037767 0.003937,
        0.063933 -0.037730 0.003937,
        0.102995 0.001078 0.003937,
        0.102234 -0.008041 0.003937,
        0.099864 -0.016376 0.003937,
        0.095669 -0.023863 0.003937,
        0.089755 -0.030089 0.003937,
        0.083421 -0.034133 0.003937,
        0.075789 -0.036761 0.003937,
        0.062950 0.042894 0.003937,
        0.070859 0.042248 0.003937,
        0.079637 0.039698 0.003937,
        0.087115 0.035393 0.003937,
        0.094224 0.028556 0.003937,
        0.098839 0.021194 0.003937,
        0.101863 0.012273 0.003937,
        0.044420 0.039773 0.003937,
        0.053524 0.042244 0.003937,
        0.044420 0.029211 0.003937,
        0.062860 0.034252 0.003937,
        0.053289 0.033008 0.003937,
        0.092432 0.001724 0.003937,
        0.092057 0.007850 0.003937,
        0.089958 0.016279 0.003937,
        0.086712 0.022359 0.003937,
        0.081957 0.027608 0.003937,
        0.076507 0.031254 0.003937,
        0.070613 0.033381 0.003937,
        0.064630 -0.029124 0.003937,
        0.071974 -0.028301 0.003937,
        0.077712 -0.026189 0.003937,
        0.082544 -0.022931 0.003937,
        0.086239 -0.019033 0.003937,
        0.089496 -0.013573 0.003937,
        0.091635 -0.006801 0.003937,
        0.045831 -0.024865 0.003937,
        0.054178 -0.027964 0.003937,
        0.109717 -0.028164 0.003937,
        0.109717 -0.036806 0.003937,
        0.150047 -0.036806 0.003937,
        0.150047 0.041934 0.003937,
        0.139484 0.041934 0.003937,
        0.139484 -0.028164 0.003937,
      ]
    }
    coordIndex [
      86, 87, 77, -1,
      77, 87, 60, -1,
      87, 88, 60, -1,
      60, 88, 61, -1,
      88, 89, 61, -1,
      61, 89, 72, -1,
      89, 90, 72, -1,
      72, 90, 71, -1,
      90, 91, 71, -1,
      71, 91, 70, -1,
      91, 92, 70, -1,
      70, 92, 62, -1,
      92, 93, 62, -1,
      62, 93, 75, -1,
      93, 86, 75, -1,
      75, 86, 77, -1,
      94, 90, 95, -1,
      95, 90, 89, -1,
      96, 93, 94, -1,
      94, 93, 92, -1,
      94, 92, 90, -1,
      90, 92, 91, -1,
      96, 97, 93, -1,
      93, 97, 98, -1,
      93, 98, 86, -1,
      86, 98, 99, -1,
      86, 99, 100, -1,
      100, 101, 86, -1,
      86, 101, 95, -1,
      86, 95, 87, -1,
      87, 95, 89, -1,
      87, 89, 88, -1,
      94, 95, 102, -1,
      102, 95, 103, -1,
      96, 94, 104, -1,
      104, 94, 102, -1,
      96, 104, 105, -1,
      96, 105, 97, -1,
      97, 105, 106, -1,
      97, 106, 98, -1,
      99, 98, 107, -1,
      107, 98, 106, -1,
      99, 107, 108, -1,
      99, 108, 100, -1,
      100, 108, 109, -1,
      100, 109, 101, -1,
      95, 101, 103, -1,
      103, 101, 109, -1,
      110, 111, 57, -1,
      57, 111, 58, -1,
      111, 112, 58, -1,
      58, 112, 59, -1,
      112, 113, 59, -1,
      59, 113, 68, -1,
      114, 82, 81, -1,
      114, 81, 115, -1,
      115, 81, 80, -1,
      115, 80, 116, -1,
      116, 80, 79, -1,
      116, 79, 117, -1,
      117, 79, 78, -1,
      117, 78, 118, -1,
      118, 78, 76, -1,
      118, 76, 119, -1,
      119, 76, 74, -1,
      119, 74, 120, -1,
      120, 74, 73, -1,
      120, 73, 121, -1,
      121, 73, 68, -1,
      121, 68, 113, -1,
      110, 57, 67, -1,
      110, 67, 122, -1,
      122, 67, 66, -1,
      122, 66, 123, -1,
      123, 66, 65, -1,
      123, 65, 124, -1,
      124, 65, 64, -1,
      124, 64, 125, -1,
      125, 64, 63, -1,
      125, 63, 126, -1,
      126, 63, 83, -1,
      126, 83, 127, -1,
      127, 83, 82, -1,
      127, 82, 114, -1,
      116, 117, 128, -1,
      128, 117, 118, -1,
      128, 118, 129, -1,
      129, 118, 119, -1,
      129, 119, 130, -1,
      130, 119, 120, -1,
      130, 120, 131, -1,
      131, 120, 121, -1,
      131, 121, 132, -1,
      132, 121, 113, -1,
      132, 113, 133, -1,
      133, 113, 112, -1,
      133, 112, 134, -1,
      134, 112, 111, -1,
      134, 111, 135, -1,
      135, 111, 110, -1,
      135, 110, 136, -1,
      136, 110, 122, -1,
      136, 122, 137, -1,
      137, 122, 123, -1,
      137, 123, 138, -1,
      138, 123, 124, -1,
      138, 124, 139, -1,
      139, 124, 125, -1,
      139, 125, 140, -1,
      140, 125, 126, -1,
      140, 126, 141, -1,
      141, 126, 127, -1,
      141, 127, 142, -1,
      142, 127, 114, -1,
      142, 114, 143, -1,
      143, 114, 115, -1,
      143, 115, 144, -1,
      144, 115, 116, -1,
      144, 116, 128, -1,
      132, 133, 145, -1,
      145, 133, 146, -1,
      132, 145, 147, -1,
      132, 147, 131, -1,
      131, 147, 148, -1,
      131, 148, 130, -1,
      130, 148, 149, -1,
      130, 149, 129, -1,
      129, 149, 150, -1,
      129, 150, 128, -1,
      128, 150, 151, -1,
      128, 151, 144, -1,
      144, 151, 152, -1,
      144, 152, 143, -1,
      143, 152, 153, -1,
      143, 153, 142, -1,
      142, 153, 154, -1,
      142, 154, 141, -1,
      141, 154, 155, -1,
      141, 155, 140, -1,
      140, 155, 156, -1,
      140, 156, 139, -1,
      139, 156, 157, -1,
      139, 157, 138, -1,
      138, 157, 158, -1,
      138, 158, 137, -1,
      137, 158, 159, -1,
      137, 159, 136, -1,
      136, 159, 160, -1,
      136, 160, 135, -1,
      134, 135, 161, -1,
      161, 135, 160, -1,
      133, 134, 146, -1,
      146, 134, 161, -1,
      162, 163, 1, -1,
      1, 163, 69, -1,
      163, 164, 69, -1,
      69, 164, 3, -1,
      164, 165, 3, -1,
      3, 165, 4, -1,
      165, 166, 4, -1,
      4, 166, 2, -1,
      166, 167, 2, -1,
      2, 167, 0, -1,
      167, 168, 0, -1,
      0, 168, 14, -1,
      168, 169, 14, -1,
      14, 169, 13, -1,
      169, 170, 13, -1,
      13, 170, 12, -1,
      170, 171, 12, -1,
      12, 171, 11, -1,
      171, 172, 11, -1,
      11, 172, 9, -1,
      172, 173, 9, -1,
      9, 173, 10, -1,
      173, 162, 10, -1,
      10, 162, 1, -1,
      164, 163, 162, -1,
      162, 173, 164, -1,
      164, 173, 172, -1,
      164, 172, 165, -1,
      167, 166, 168, -1,
      168, 166, 165, -1,
      168, 165, 169, -1,
      169, 165, 172, -1,
      169, 172, 170, -1,
      170, 172, 171, -1,
      174, 175, 5, -1,
      5, 175, 6, -1,
      6, 175, 176, -1,
      177, 85, 84, -1,
      177, 84, 178, -1,
      178, 84, 8, -1,
      178, 8, 176, -1,
      176, 8, 7, -1,
      176, 7, 6, -1,
      179, 55, 54, -1,
      179, 54, 180, -1,
      180, 54, 48, -1,
      180, 48, 181, -1,
      181, 48, 46, -1,
      181, 46, 182, -1,
      182, 46, 45, -1,
      182, 45, 183, -1,
      183, 45, 38, -1,
      183, 38, 184, -1,
      184, 38, 37, -1,
      184, 37, 185, -1,
      185, 37, 177, -1,
      177, 37, 35, -1,
      177, 35, 85, -1,
      186, 39, 52, -1,
      186, 52, 187, -1,
      187, 52, 51, -1,
      187, 51, 188, -1,
      188, 51, 50, -1,
      188, 50, 189, -1,
      189, 50, 16, -1,
      189, 16, 190, -1,
      190, 16, 15, -1,
      190, 15, 191, -1,
      191, 15, 56, -1,
      191, 56, 192, -1,
      192, 56, 55, -1,
      192, 55, 179, -1,
      193, 41, 40, -1,
      193, 40, 194, -1,
      194, 40, 39, -1,
      194, 39, 186, -1,
      193, 195, 41, -1,
      41, 195, 42, -1,
      196, 44, 43, -1,
      196, 43, 197, -1,
      197, 43, 42, -1,
      197, 42, 195, -1,
      198, 23, 33, -1,
      198, 33, 199, -1,
      199, 33, 32, -1,
      199, 32, 200, -1,
      200, 32, 22, -1,
      200, 22, 201, -1,
      201, 22, 21, -1,
      201, 21, 202, -1,
      202, 21, 19, -1,
      202, 19, 203, -1,
      203, 19, 18, -1,
      203, 18, 204, -1,
      204, 18, 44, -1,
      204, 44, 196, -1,
      205, 27, 26, -1,
      205, 26, 206, -1,
      206, 26, 28, -1,
      206, 28, 207, -1,
      207, 28, 29, -1,
      207, 29, 208, -1,
      208, 29, 30, -1,
      208, 30, 209, -1,
      209, 30, 25, -1,
      209, 25, 210, -1,
      210, 25, 24, -1,
      210, 24, 211, -1,
      211, 24, 23, -1,
      211, 23, 198, -1,
      174, 5, 20, -1,
      174, 20, 212, -1,
      212, 20, 31, -1,
      212, 31, 213, -1,
      213, 31, 27, -1,
      213, 27, 205, -1,
      206, 177, 205, -1,
      205, 177, 178, -1,
      205, 178, 213, -1,
      213, 178, 176, -1,
      213, 176, 212, -1,
      212, 176, 175, -1,
      212, 175, 174, -1,
      195, 193, 197, -1,
      197, 193, 194, -1,
      197, 194, 196, -1,
      196, 194, 186, -1,
      196, 186, 204, -1,
      204, 186, 187, -1,
      204, 187, 203, -1,
      203, 187, 188, -1,
      203, 188, 202, -1,
      202, 188, 189, -1,
      202, 189, 201, -1,
      201, 189, 190, -1,
      201, 190, 200, -1,
      200, 190, 191, -1,
      200, 191, 199, -1,
      199, 191, 192, -1,
      199, 192, 198, -1,
      198, 192, 179, -1,
      198, 179, 211, -1,
      211, 179, 180, -1,
      211, 180, 210, -1,
      210, 180, 181, -1,
      210, 181, 209, -1,
      209, 181, 182, -1,
      209, 182, 208, -1,
      208, 182, 183, -1,
      208, 183, 207, -1,
      207, 183, 184, -1,
      207, 184, 206, -1,
      206, 184, 185, -1,
      206, 185, 177, -1,
      214, 215, 47, -1,
      47, 215, 36, -1,
      215, 216, 36, -1,
      36, 216, 34, -1,
      216, 217, 34, -1,
      34, 217, 53, -1,
      217, 218, 53, -1,
      53, 218, 17, -1,
      218, 219, 17, -1,
      17, 219, 49, -1,
      219, 214, 49, -1,
      49, 214, 47, -1,
      218, 217, 219, -1,
      219, 217, 216, -1,
      219, 216, 214, -1,
      214, 216, 215, -1,
    ]
  }
}

Shape {
  appearance Appearance {
    material Material {
      diffuseColor 0.1373 0.4549 0.8784
      specularColor 0.0667 0.2275 0.4392
      ambientIntensity 0.2
      transparency 0.0000
      shininess 0.5
    }
  }
  geometry IndexedFaceSet {
    ccw TRUE
    solid FALSE
    coord DEF co Coordinate {
      point [
        -0.119392 -0.006079 0.000000,
        -0.145724 -0.006079 0.000000,
        -0.131140 0.026810 0.000000,
        -0.131898 0.029541 0.000000,
        -0.132400 0.032331 0.000000,
        -0.132655 0.032331 0.000000,
        -0.133169 0.029549 0.000000,
        -0.133870 0.026810 0.000000,
        -0.050734 0.033291 0.000000,
        -0.039121 0.033291 0.000000,
        -0.060054 0.032301 0.000000,
        -0.066554 0.030026 0.000000,
        -0.072305 0.026311 0.000000,
        -0.076130 0.022250 0.000000,
        -0.078865 0.017393 0.000000,
        -0.080703 0.011165 0.000000,
        -0.081372 0.003329 0.000000,
        -0.080649 -0.004941 0.000000,
        -0.078340 -0.012343 0.000000,
        -0.075019 -0.017772 0.000000,
        -0.070602 -0.022134 0.000000,
        -0.065232 -0.025323 0.000000,
        -0.058606 -0.027391 0.000000,
        -0.050299 -0.028164 0.000000,
        -0.039121 -0.028164 0.000000,
      ]
    }
    coordIndex [
      0, 1, 2, -1,
      2, 1, 7, -1,
      2, 7, 3, -1,
      3, 7, 6, -1,
      3, 6, 4, -1,
      4, 6, 5, -1,
      9, 24, 8, -1,
      8, 24, 23, -1,
      8, 23, 22, -1,
      16, 15, 8, -1,
      8, 15, 14, -1,
      8, 14, 10, -1,
      22, 21, 8, -1,
      8, 21, 20, -1,
      8, 20, 19, -1,
      19, 18, 8, -1,
      8, 18, 17, -1,
      8, 17, 16, -1,
      13, 12, 14, -1,
      14, 12, 11, -1,
      14, 11, 10, -1,
    ]
  }
}

Shape {
  appearance Appearance {
    material Material {
      diffuseColor 0.6471 0.5176 0.0000
      specularColor 0.4510 0.3608 0.0000
      ambientIntensity 0.2
      transparency 0.0000
      shininess 0.5
    }
  }
  geometry IndexedFaceSet {
    ccw TRUE
    solid FALSE
    coord DEF co Coordinate {
      point [
        -0.580587 0.244375 0.137885,
        -0.565180 0.277942 0.137773,
        -0.538969 0.326057 0.137709,
        -0.521065 0.353633 0.137729,
        0.565106 0.277898 0.137774,
        0.568269 0.271793 0.137785,
        0.582016 0.240521 0.137898,
        0.584468 0.234942 0.137918,
        0.598373 0.196850 0.137944,
        0.529185 0.341707 0.137718,
        0.541826 0.320694 0.137719,
        0.549829 0.307390 0.137719,
        0.466916 0.422478 0.137832,
        0.473760 0.415154 0.137824,
        0.506354 0.374709 0.137758,
        0.516732 0.359707 0.137740,
        0.520980 0.353567 0.137732,
        0.499491 0.383810 0.137773,
        0.387549 0.496530 0.137841,
        0.403723 0.483130 0.137851,
        0.406244 0.481041 0.137852,
        0.417086 0.472059 0.137859,
        0.430610 0.459321 0.137857,
        0.446272 0.444569 0.137856,
        0.332787 0.534499 0.137794,
        0.344300 0.527502 0.137802,
        0.344488 0.527377 0.137802,
        0.353775 0.521195 0.137810,
        0.386244 0.497610 0.137840,
        0.255380 0.575483 0.137781,
        0.273971 0.567222 0.137773,
        0.285456 0.561215 0.137775,
        0.309646 0.548562 0.137779,
        0.199770 0.597405 0.137814,
        0.237331 0.583502 0.137788,
        0.086122 0.623699 0.137843,
        0.087369 0.623517 0.137843,
        0.110617 0.620133 0.137845,
        0.150290 0.611730 0.137839,
        0.161324 0.608913 0.137835,
        0.172244 0.605644 0.137829,
        0.173059 0.605401 0.137828,
        0.030813 0.629167 0.137838,
        0.070777 0.625932 0.137843,
        -0.087377 0.623538 0.137843,
        -0.086122 0.623700 0.137843,
        -0.060667 0.626993 0.137841,
        -0.049320 0.627987 0.137839,
        -0.009233 0.629854 0.137836,
        -0.173094 0.605497 0.137831,
        -0.172244 0.605720 0.137831,
        -0.140398 0.614076 0.137842,
        -0.100884 0.621790 0.137844,
        -0.255505 0.575765 0.137783,
        -0.254406 0.576263 0.137784,
        -0.217196 0.591293 0.137806,
        -0.179180 0.603900 0.137829,
        -0.285369 0.561215 0.137780,
        -0.301013 0.553346 0.137780,
        -0.264785 0.571568 0.137780,
        -0.258366 0.574471 0.137783,
        -0.403843 0.483281 0.137854,
        -0.400672 0.486069 0.137853,
        -0.387549 0.496203 0.137843,
        -0.368973 0.510548 0.137828,
        -0.344488 0.527083 0.137807,
        -0.335746 0.532987 0.137799,
        -0.332888 0.534663 0.137798,
        -0.439050 0.451703 0.137859,
        -0.430809 0.459570 0.137862,
        -0.430610 0.459744 0.137862,
        -0.406389 0.481041 0.137855,
        -0.473671 0.414890 0.137821,
        -0.467204 0.422518 0.137833,
        -0.467088 0.422638 0.137833,
        -0.517162 0.359644 0.137733,
        -0.516732 0.360222 0.137734,
        -0.493238 0.391813 0.137785,
        -0.563816 0.280913 0.137763,
        -0.558633 0.291083 0.137741,
        -0.541984 0.320694 0.137714,
        -0.598373 0.196850 0.137952,
        -0.594981 0.206878 0.138058,
        -0.582067 0.240521 0.137903,
        0.688976 0.196850 0.137965,
        0.628394 0.196850 0.137509,
        0.602853 0.196850 0.137880,
        0.688976 0.160347 0.137896,
        0.688976 0.095198 0.137773,
        0.688976 0.000000 0.137836,
        0.688976 -0.160347 0.137942,
        0.688976 -0.196850 0.137966,
        0.602854 -0.196850 0.137916,
        0.598373 -0.196850 0.137944,
        0.658944 -0.196850 0.137569,
        0.538970 -0.326056 0.137713,
        0.521065 -0.353633 0.137733,
        0.258366 -0.574471 0.137781,
        0.255505 -0.575765 0.137782,
        -0.559793 -0.288155 0.137765,
        -0.565106 -0.277898 0.137787,
        -0.568269 -0.271793 0.137801,
        -0.584468 -0.234942 0.137946,
        -0.598373 -0.196850 0.137963,
        -0.529186 -0.341706 0.137711,
        -0.541826 -0.320694 0.137718,
        -0.549830 -0.307389 0.137722,
        -0.466916 -0.422478 0.137821,
        -0.473760 -0.415153 0.137813,
        -0.506355 -0.374707 0.137747,
        -0.516732 -0.359707 0.137731,
        -0.520980 -0.353567 0.137724,
        -0.499491 -0.383809 0.137761,
        -0.387549 -0.496530 0.137846,
        -0.403723 -0.483130 0.137852,
        -0.406244 -0.481041 0.137853,
        -0.417087 -0.472059 0.137858,
        -0.430610 -0.459321 0.137853,
        -0.446273 -0.444569 0.137848,
        -0.332787 -0.534499 0.137808,
        -0.344302 -0.527501 0.137815,
        -0.344488 -0.527377 0.137815,
        -0.353775 -0.521194 0.137821,
        -0.386244 -0.497610 0.137845,
        -0.255380 -0.575483 0.137797,
        -0.273972 -0.567222 0.137791,
        -0.285456 -0.561215 0.137792,
        -0.309646 -0.548561 0.137795,
        -0.199770 -0.597405 0.137825,
        -0.237331 -0.583502 0.137803,
        -0.086122 -0.623699 0.137843,
        -0.087369 -0.623517 0.137843,
        -0.110617 -0.620133 0.137846,
        -0.150290 -0.611730 0.137843,
        -0.161325 -0.608913 0.137841,
        -0.172244 -0.605644 0.137836,
        -0.173059 -0.605401 0.137836,
        -0.030813 -0.629167 0.137835,
        -0.070777 -0.625932 0.137841,
        0.087377 -0.623538 0.137844,
        0.086122 -0.623700 0.137843,
        0.060667 -0.626993 0.137840,
        0.049320 -0.627987 0.137839,
        0.009232 -0.629854 0.137835,
        0.173094 -0.605497 0.137831,
        0.172244 -0.605720 0.137831,
        0.140398 -0.614076 0.137843,
        0.100884 -0.621790 0.137845,
        0.254405 -0.576263 0.137782,
        0.217196 -0.591293 0.137805,
        0.179180 -0.603900 0.137829,
        0.301013 -0.553346 0.137778,
        0.264785 -0.571568 0.137778,
        0.403843 -0.483281 0.137850,
        0.400672 -0.486069 0.137849,
        0.387549 -0.496203 0.137838,
        0.368973 -0.510548 0.137824,
        0.344488 -0.527083 0.137803,
        0.335746 -0.532987 0.137796,
        0.332888 -0.534663 0.137794,
        0.439051 -0.451703 0.137856,
        0.430809 -0.459570 0.137858,
        0.430610 -0.459744 0.137858,
        0.406389 -0.481041 0.137850,
        0.473671 -0.414890 0.137821,
        0.467204 -0.422518 0.137832,
        0.467088 -0.422638 0.137833,
        0.517163 -0.359644 0.137737,
        0.516732 -0.360222 0.137738,
        0.493238 -0.391812 0.137787,
        0.565180 -0.277942 0.137772,
        0.563816 -0.280913 0.137762,
        0.559793 -0.288807 0.137746,
        0.558634 -0.291082 0.137742,
        0.541984 -0.320694 0.137717,
        0.594981 -0.206878 0.138045,
        0.580587 -0.244374 0.137878,
        -0.688976 -0.196850 0.137986,
        -0.629128 -0.196850 0.137526,
        -0.602853 -0.196850 0.137900,
        -0.688976 -0.160347 0.137907,
        -0.688976 -0.086874 0.137748,
        -0.688976 -0.000000 0.137815,
        -0.688976 0.160347 0.137939,
        -0.688976 0.196850 0.137967,
        -0.602854 0.196850 0.137923,
        -0.658707 0.196850 0.137567,
        0.430610 -0.240521 0.153114,
        0.430610 -0.160347 0.158070,
        0.344488 -0.160347 0.177177,
        0.344488 0.400868 0.152173,
        0.344488 0.320694 0.161075,
        0.387549 0.320694 0.153946,
        0.258366 0.561215 0.139770,
        0.172244 0.561215 0.145827,
        0.172244 0.481041 0.160654,
        0.258366 0.320694 0.176862,
        0.258366 0.120260 0.203479,
        0.258366 0.080174 0.206598,
        0.344488 0.080174 0.182579,
        0.129183 0.160347 0.228572,
        0.086122 0.160347 0.234883,
        0.086122 0.080174 0.245673,
        -0.387549 0.320694 0.154010,
        -0.430610 0.320694 0.147815,
        -0.430610 0.240521 0.153179,
        -0.473671 0.320694 0.142815,
        -0.516732 0.320694 0.139178,
        -0.516732 0.240521 0.142042,
        -0.387549 0.481041 0.139323,
        -0.602854 0.160347 0.138494,
        -0.559793 -0.160347 0.140914,
        -0.516732 -0.320694 0.139194,
        -0.344488 -0.481041 0.143166,
        0.559793 -0.160347 0.140815,
        0.602854 -0.160347 0.138468,
        0.516732 -0.160347 0.144846,
        0.516732 -0.320694 0.139180,
        0.473671 -0.320694 0.142810,
        0.430610 -0.320694 0.147801,
        0.387549 -0.481041 0.139322,
        0.344488 -0.481041 0.143123,
        0.301427 -0.481041 0.147435,
        0.258366 -0.481041 0.152007,
        0.172244 -0.481041 0.160736,
        0.215305 -0.481041 0.156548,
        0.086122 -0.481041 0.166985,
        -0.000000 -0.481041 0.169250,
        -0.000000 -0.629695 0.137835,
        -0.086122 -0.481041 0.167028,
        -0.172244 -0.561215 0.145892,
        -0.258366 -0.481041 0.152087,
        -0.387549 -0.481041 0.139338,
        -0.430610 -0.320694 0.147903,
        -0.473671 -0.320694 0.142865,
        -0.516732 -0.160347 0.145002,
        -0.602854 -0.160347 0.138517,
        -0.516732 0.160347 0.144923,
        -0.344488 0.481041 0.143117,
        -0.258366 0.481041 0.151985,
        -0.258366 0.561215 0.139779,
        -0.172244 0.481041 0.160683,
        -0.086122 0.481041 0.166894,
        -0.000000 0.481041 0.169124,
        0.000000 0.629695 0.137837,
        0.086122 0.481041 0.166877,
        0.258366 0.481041 0.151954,
        0.387549 0.481041 0.139317,
        0.344488 0.481041 0.143102,
        0.430610 0.320694 0.147772,
        0.473671 0.320694 0.142792,
        0.516732 0.320694 0.139172,
        0.516732 0.240521 0.142006,
        0.516732 0.160347 0.144844,
        0.602854 0.160347 0.138470,
        -0.602854 -0.000000 0.139823,
        -0.430610 0.160347 0.158201,
        -0.430610 0.080174 0.162152,
        -0.516732 0.080174 0.147393,
        -0.129183 0.240521 0.214230,
        -0.172244 0.240521 0.207061,
        -0.172244 0.160347 0.220390,
        -0.258366 0.240521 0.189028,
        -0.258366 0.160347 0.199558,
        -0.344488 0.240521 0.169722,
        -0.344488 0.160347 0.177346,
        -0.086122 0.240521 0.219620,
        -0.129183 0.160347 0.228710,
        -0.172244 0.080174 0.229686,
        -0.258366 0.080174 0.206886,
        -0.344488 0.080174 0.182851,
        -0.086122 0.080174 0.245787,
        -0.043061 0.080174 0.250086,
        -0.043061 0.160347 0.238857,
        -0.000000 0.160347 0.240157,
        -0.000000 0.240521 0.224076,
        0.043061 0.240521 0.222922,
        -0.086122 0.320694 0.202209,
        -0.172244 0.320694 0.191835,
        -0.258366 0.320694 0.176970,
        -0.344488 0.320694 0.161159,
        -0.172244 0.400868 0.176120,
        -0.258366 0.400868 0.164444,
        -0.344488 0.400868 0.152217,
        0.043061 0.080174 0.250029,
        0.043061 0.160347 0.238811,
        -0.000000 0.080174 0.251526,
        0.172244 0.120260 0.225486,
        0.172244 0.080174 0.229462,
        0.129183 0.080174 0.238689,
        -0.129183 0.080174 0.238860,
        -0.086122 0.160347 0.234976,
        -0.043061 0.240521 0.222957,
        -0.000000 0.320694 0.205893,
        0.086122 0.320694 0.202160,
        0.172244 0.160347 0.220212,
        0.129183 0.240521 0.214128,
        0.086122 0.240521 0.219551,
        0.344488 0.240521 0.169584,
        0.258366 0.240521 0.188867,
        0.258366 0.200434 0.194384,
        0.172244 0.240521 0.206929,
        0.172244 0.200434 0.213925,
        0.172244 0.320694 0.191745,
        0.516732 -0.000000 0.148206,
        0.516732 0.080174 0.147265,
        0.430610 -0.000000 0.163407,
        0.430610 0.080174 0.161942,
        0.344488 -0.000000 0.184554,
        0.258366 -0.000000 0.209195,
        0.172244 -0.000000 0.232776,
        0.129183 -0.000000 0.242324,
        0.086122 -0.000000 0.249561,
        0.043061 -0.000000 0.254078,
        -0.000000 -0.000000 0.255633,
        -0.043061 -0.000000 0.254144,
        -0.086122 -0.000000 0.249693,
        -0.129183 -0.000000 0.242522,
        -0.172244 -0.000000 0.233035,
        0.602854 -0.000000 0.139756,
        0.258366 0.160347 0.199334,
        0.344488 0.160347 0.177142,
        0.430610 0.160347 0.158055,
        0.430610 0.240521 0.153091,
        0.086122 0.400868 0.184303,
        0.172244 0.400868 0.176063,
        0.258366 0.400868 0.164380,
        -0.258366 -0.000000 0.209532,
        -0.344488 -0.000000 0.184884,
        -0.430610 -0.000000 0.163671,
        -0.516732 -0.000000 0.148374,
        0.086122 -0.240521 0.219693,
        0.043061 -0.240521 0.223079,
        0.086122 -0.320694 0.202311,
        -0.000000 -0.320694 0.206074,
        0.129183 -0.240521 0.214254,
        0.172244 -0.320694 0.191864,
        0.172244 -0.240521 0.207039,
        0.215305 -0.320694 0.184766,
        0.258366 -0.320694 0.176947,
        0.258366 -0.240521 0.188945,
        0.301427 -0.320694 0.168912,
        0.344488 -0.320694 0.161129,
        0.344488 -0.240521 0.169632,
        0.387549 -0.320694 0.153987,
        0.473671 -0.160347 0.150619,
        0.258366 -0.080174 0.206625,
        0.344488 -0.080174 0.182593,
        0.430610 -0.080174 0.161947,
        0.516732 -0.080174 0.147263,
        -0.344488 -0.320694 0.161318,
        -0.344488 -0.400868 0.152328,
        -0.258366 -0.400868 0.164606,
        -0.172244 -0.481041 0.160811,
        -0.387549 -0.320694 0.154136,
        -0.473671 -0.160347 0.150832,
        -0.430610 -0.240521 0.153304,
        -0.344488 -0.240521 0.169904,
        -0.430610 -0.160347 0.158336,
        -0.344488 -0.160347 0.177513,
        -0.258366 -0.160347 0.199733,
        -0.172244 -0.400868 0.176301,
        -0.258366 -0.320694 0.177170,
        -0.258366 -0.240521 0.189236,
        -0.000000 -0.240521 0.224247,
        -0.043061 -0.240521 0.223141,
        -0.086122 -0.320694 0.202410,
        -0.086122 -0.240521 0.219815,
        -0.129183 -0.240521 0.214433,
        -0.172244 -0.320694 0.192046,
        -0.172244 -0.240521 0.207269,
        -0.172244 -0.160347 0.220559,
        -0.258366 -0.120260 0.203876,
        -0.344488 -0.080174 0.182949,
        -0.430610 -0.080174 0.162236,
        -0.516732 -0.080174 0.147446,
        -0.172244 -0.120260 0.225820,
        -0.129183 -0.160347 0.228872,
        -0.086122 -0.120260 0.241247,
        -0.086122 -0.160347 0.235130,
        -0.043061 -0.160347 0.239002,
        -0.086122 -0.080174 0.245867,
        -0.129183 -0.080174 0.238945,
        -0.172244 -0.080174 0.229776,
        -0.258366 -0.080174 0.206983,
        0.258366 -0.160347 0.199391,
        0.172244 -0.160347 0.220294,
        0.172244 -0.080174 0.229502,
        0.129183 -0.160347 0.228669,
        0.129183 -0.080174 0.238735,
        0.086122 -0.160347 0.234992,
        0.086122 -0.080174 0.245726,
        0.043061 -0.160347 0.238932,
        0.043061 -0.080174 0.250088,
        -0.000000 -0.160347 0.240291,
        -0.000000 -0.080174 0.251591,
        -0.043061 -0.080174 0.250159,
      ]
    }
    coordIndex [
      187, 188, 189, -1,
      190, 191, 192, -1,
      193, 194, 195, -1,
      191, 190, 196, -1,
      197, 198, 199, -1,
      200, 201, 202, -1,
      203, 204, 205, -1,
      206, 207, 208, -1,
      61, 71, 209, -1,
      81, 185, 210, -1,
      186, 184, 183, -1,
      100, 99, 211, -1,
      106, 105, 212, -1,
      122, 121, 213, -1,
      172, 171, 214, -1,
      214, 171, 170, -1,
      214, 170, 176, -1,
      176, 175, 214, -1,
      214, 175, 93, -1,
      214, 93, 215, -1,
      215, 93, 92, -1,
      215, 92, 90, -1,
      90, 92, 94, -1,
      90, 94, 91, -1,
      172, 214, 173, -1,
      173, 214, 216, -1,
      173, 216, 174, -1,
      169, 168, 217, -1,
      217, 168, 167, -1,
      167, 96, 217, -1,
      217, 96, 95, -1,
      217, 95, 174, -1,
      174, 216, 217, -1,
      217, 216, 218, -1,
      217, 218, 169, -1,
      162, 161, 219, -1,
      219, 161, 160, -1,
      160, 166, 219, -1,
      219, 166, 165, -1,
      219, 165, 218, -1,
      218, 165, 164, -1,
      218, 164, 169, -1,
      153, 220, 154, -1,
      154, 220, 155, -1,
      155, 220, 156, -1,
      156, 220, 221, -1,
      156, 221, 157, -1,
      157, 221, 158, -1,
      158, 221, 222, -1,
      158, 222, 159, -1,
      223, 152, 222, -1,
      222, 152, 151, -1,
      222, 151, 159, -1,
      144, 150, 224, -1,
      224, 150, 149, -1,
      224, 149, 225, -1,
      149, 148, 225, -1,
      225, 148, 98, -1,
      225, 98, 223, -1,
      223, 98, 97, -1,
      223, 97, 152, -1,
      139, 147, 226, -1,
      226, 147, 146, -1,
      226, 146, 224, -1,
      224, 146, 145, -1,
      224, 145, 144, -1,
      227, 228, 143, -1,
      143, 142, 227, -1,
      227, 142, 141, -1,
      227, 141, 226, -1,
      226, 141, 140, -1,
      226, 140, 139, -1,
      131, 130, 229, -1,
      229, 130, 138, -1,
      229, 138, 227, -1,
      227, 138, 137, -1,
      227, 137, 228, -1,
      136, 135, 230, -1,
      230, 135, 134, -1,
      230, 134, 133, -1,
      124, 129, 230, -1,
      230, 129, 128, -1,
      230, 128, 136, -1,
      121, 120, 231, -1,
      120, 119, 231, -1,
      231, 119, 127, -1,
      231, 127, 126, -1,
      122, 213, 123, -1,
      116, 115, 232, -1,
      232, 115, 114, -1,
      232, 114, 113, -1,
      108, 107, 233, -1,
      233, 107, 118, -1,
      212, 110, 234, -1,
      234, 110, 109, -1,
      234, 109, 112, -1,
      105, 104, 212, -1,
      212, 104, 111, -1,
      212, 111, 110, -1,
      211, 99, 235, -1,
      179, 103, 211, -1,
      103, 102, 211, -1,
      211, 102, 101, -1,
      211, 101, 100, -1,
      180, 177, 236, -1,
      236, 177, 178, -1,
      186, 183, 185, -1,
      82, 237, 208, -1,
      78, 1, 208, -1,
      1, 0, 208, -1,
      208, 0, 83, -1,
      208, 83, 82, -1,
      75, 3, 207, -1,
      3, 2, 207, -1,
      207, 2, 80, -1,
      207, 80, 208, -1,
      208, 80, 79, -1,
      208, 79, 78, -1,
      73, 72, 206, -1,
      206, 72, 77, -1,
      206, 77, 207, -1,
      207, 77, 76, -1,
      207, 76, 75, -1,
      74, 204, 68, -1,
      68, 204, 69, -1,
      61, 209, 62, -1,
      238, 64, 209, -1,
      209, 64, 63, -1,
      209, 63, 62, -1,
      58, 67, 239, -1,
      239, 67, 66, -1,
      239, 66, 238, -1,
      238, 66, 65, -1,
      238, 65, 64, -1,
      57, 240, 59, -1,
      59, 240, 60, -1,
      51, 50, 241, -1,
      241, 50, 49, -1,
      241, 49, 56, -1,
      56, 55, 241, -1,
      241, 55, 54, -1,
      241, 54, 53, -1,
      53, 60, 241, -1,
      241, 60, 240, -1,
      241, 240, 239, -1,
      239, 240, 57, -1,
      239, 57, 58, -1,
      46, 45, 242, -1,
      242, 45, 44, -1,
      242, 44, 52, -1,
      47, 243, 48, -1,
      48, 243, 244, -1,
      36, 35, 245, -1,
      245, 35, 43, -1,
      245, 43, 243, -1,
      243, 43, 42, -1,
      243, 42, 244, -1,
      194, 39, 38, -1,
      245, 195, 36, -1,
      36, 195, 194, -1,
      36, 194, 37, -1,
      37, 194, 38, -1,
      33, 41, 194, -1,
      194, 41, 40, -1,
      194, 40, 39, -1,
      31, 30, 193, -1,
      193, 30, 29, -1,
      193, 29, 194, -1,
      194, 29, 34, -1,
      194, 34, 33, -1,
      26, 25, 246, -1,
      246, 25, 24, -1,
      246, 24, 32, -1,
      20, 19, 247, -1,
      247, 19, 18, -1,
      247, 18, 248, -1,
      248, 18, 28, -1,
      248, 28, 27, -1,
      13, 12, 249, -1,
      21, 192, 22, -1,
      22, 192, 249, -1,
      22, 249, 23, -1,
      23, 249, 12, -1,
      15, 14, 250, -1,
      250, 14, 17, -1,
      9, 16, 251, -1,
      5, 4, 252, -1,
      252, 4, 11, -1,
      252, 11, 251, -1,
      251, 11, 10, -1,
      251, 10, 9, -1,
      86, 8, 253, -1,
      253, 8, 7, -1,
      253, 7, 252, -1,
      252, 7, 6, -1,
      252, 6, 5, -1,
      87, 84, 254, -1,
      254, 84, 85, -1,
      185, 183, 210, -1,
      210, 183, 182, -1,
      210, 182, 255, -1,
      74, 73, 204, -1,
      204, 73, 206, -1,
      204, 206, 205, -1,
      205, 206, 208, -1,
      205, 208, 256, -1,
      256, 208, 237, -1,
      256, 237, 257, -1,
      257, 237, 258, -1,
      259, 260, 261, -1,
      261, 260, 262, -1,
      261, 262, 263, -1,
      263, 262, 264, -1,
      263, 264, 265, -1,
      266, 259, 267, -1,
      267, 259, 261, -1,
      267, 261, 268, -1,
      268, 261, 263, -1,
      268, 263, 269, -1,
      269, 263, 265, -1,
      269, 265, 270, -1,
      271, 272, 273, -1,
      273, 272, 274, -1,
      273, 274, 275, -1,
      275, 274, 276, -1,
      266, 277, 259, -1,
      259, 277, 278, -1,
      259, 278, 260, -1,
      260, 278, 279, -1,
      260, 279, 262, -1,
      262, 279, 280, -1,
      262, 280, 264, -1,
      52, 51, 242, -1,
      242, 51, 241, -1,
      242, 241, 281, -1,
      281, 241, 239, -1,
      281, 239, 282, -1,
      282, 239, 238, -1,
      282, 238, 283, -1,
      283, 238, 209, -1,
      283, 209, 203, -1,
      203, 209, 71, -1,
      203, 71, 204, -1,
      204, 71, 70, -1,
      204, 70, 69, -1,
      257, 270, 256, -1,
      256, 270, 265, -1,
      256, 265, 205, -1,
      205, 265, 264, -1,
      205, 264, 203, -1,
      203, 264, 280, -1,
      203, 280, 283, -1,
      283, 280, 279, -1,
      283, 279, 282, -1,
      282, 279, 278, -1,
      282, 278, 281, -1,
      281, 278, 277, -1,
      281, 277, 242, -1,
      242, 277, 243, -1,
      242, 243, 46, -1,
      46, 243, 47, -1,
      202, 201, 284, -1,
      284, 201, 285, -1,
      284, 285, 286, -1,
      198, 287, 288, -1,
      288, 287, 200, -1,
      288, 200, 289, -1,
      289, 200, 202, -1,
      290, 271, 291, -1,
      291, 271, 273, -1,
      291, 273, 292, -1,
      292, 273, 275, -1,
      292, 275, 293, -1,
      293, 275, 276, -1,
      293, 276, 294, -1,
      198, 197, 287, -1,
      287, 197, 295, -1,
      287, 295, 200, -1,
      200, 295, 296, -1,
      200, 296, 201, -1,
      201, 296, 297, -1,
      201, 297, 285, -1,
      298, 299, 300, -1,
      300, 299, 301, -1,
      300, 301, 302, -1,
      272, 286, 274, -1,
      274, 286, 285, -1,
      274, 285, 276, -1,
      276, 285, 297, -1,
      276, 297, 294, -1,
      294, 297, 296, -1,
      294, 296, 303, -1,
      304, 305, 306, -1,
      306, 305, 307, -1,
      306, 307, 308, -1,
      308, 307, 199, -1,
      308, 199, 309, -1,
      309, 199, 198, -1,
      309, 198, 310, -1,
      310, 198, 288, -1,
      310, 288, 311, -1,
      311, 288, 289, -1,
      311, 289, 312, -1,
      312, 289, 202, -1,
      312, 202, 313, -1,
      313, 202, 284, -1,
      313, 284, 314, -1,
      314, 284, 286, -1,
      314, 286, 315, -1,
      315, 286, 272, -1,
      315, 272, 316, -1,
      316, 272, 271, -1,
      316, 271, 317, -1,
      317, 271, 290, -1,
      317, 290, 318, -1,
      85, 86, 254, -1,
      254, 86, 253, -1,
      254, 253, 319, -1,
      302, 320, 300, -1,
      300, 320, 321, -1,
      300, 321, 298, -1,
      298, 321, 322, -1,
      298, 322, 323, -1,
      16, 15, 251, -1,
      251, 15, 250, -1,
      251, 250, 252, -1,
      252, 250, 323, -1,
      252, 323, 253, -1,
      253, 323, 322, -1,
      319, 89, 254, -1,
      254, 89, 88, -1,
      254, 88, 87, -1,
      17, 13, 250, -1,
      250, 13, 249, -1,
      250, 249, 323, -1,
      323, 249, 192, -1,
      323, 192, 298, -1,
      298, 192, 191, -1,
      298, 191, 299, -1,
      299, 191, 196, -1,
      299, 196, 301, -1,
      243, 324, 245, -1,
      245, 324, 325, -1,
      245, 325, 195, -1,
      195, 325, 246, -1,
      195, 246, 193, -1,
      193, 246, 32, -1,
      193, 32, 31, -1,
      27, 26, 248, -1,
      248, 26, 246, -1,
      248, 246, 326, -1,
      326, 246, 325, -1,
      326, 325, 303, -1,
      303, 325, 324, -1,
      303, 324, 294, -1,
      294, 324, 243, -1,
      294, 243, 293, -1,
      293, 243, 277, -1,
      293, 277, 292, -1,
      292, 277, 266, -1,
      292, 266, 291, -1,
      291, 266, 267, -1,
      291, 267, 290, -1,
      290, 267, 268, -1,
      290, 268, 318, -1,
      318, 268, 269, -1,
      318, 269, 327, -1,
      327, 269, 270, -1,
      327, 270, 328, -1,
      328, 270, 257, -1,
      328, 257, 329, -1,
      329, 257, 258, -1,
      329, 258, 330, -1,
      331, 332, 333, -1,
      333, 332, 334, -1,
      331, 333, 335, -1,
      335, 333, 336, -1,
      335, 336, 337, -1,
      338, 339, 340, -1,
      340, 339, 341, -1,
      341, 342, 343, -1,
      343, 342, 344, -1,
      188, 187, 345, -1,
      346, 189, 347, -1,
      347, 189, 188, -1,
      347, 188, 348, -1,
      348, 188, 345, -1,
      348, 345, 349, -1,
      310, 346, 309, -1,
      309, 346, 347, -1,
      309, 347, 308, -1,
      308, 347, 348, -1,
      308, 348, 306, -1,
      306, 348, 349, -1,
      306, 349, 304, -1,
      304, 349, 319, -1,
      304, 319, 305, -1,
      305, 319, 253, -1,
      305, 253, 307, -1,
      307, 253, 322, -1,
      307, 322, 199, -1,
      199, 322, 321, -1,
      199, 321, 197, -1,
      197, 321, 320, -1,
      197, 320, 295, -1,
      295, 320, 302, -1,
      295, 302, 296, -1,
      296, 302, 301, -1,
      296, 301, 303, -1,
      303, 301, 196, -1,
      303, 196, 326, -1,
      326, 196, 190, -1,
      326, 190, 248, -1,
      248, 190, 192, -1,
      248, 192, 247, -1,
      247, 192, 21, -1,
      247, 21, 20, -1,
      350, 351, 352, -1,
      352, 351, 231, -1,
      352, 231, 353, -1,
      353, 231, 126, -1,
      353, 126, 230, -1,
      230, 126, 125, -1,
      230, 125, 124, -1,
      117, 116, 354, -1,
      354, 116, 232, -1,
      354, 232, 213, -1,
      213, 232, 113, -1,
      213, 113, 123, -1,
      99, 106, 235, -1,
      235, 106, 212, -1,
      235, 212, 355, -1,
      355, 212, 234, -1,
      118, 117, 233, -1,
      233, 117, 354, -1,
      233, 354, 356, -1,
      356, 354, 357, -1,
      255, 182, 236, -1,
      236, 182, 181, -1,
      236, 181, 180, -1,
      112, 108, 234, -1,
      234, 108, 233, -1,
      234, 233, 355, -1,
      355, 233, 356, -1,
      355, 356, 358, -1,
      358, 356, 357, -1,
      358, 357, 359, -1,
      359, 357, 360, -1,
      353, 361, 352, -1,
      352, 361, 362, -1,
      352, 362, 350, -1,
      350, 362, 363, -1,
      121, 231, 213, -1,
      213, 231, 351, -1,
      213, 351, 354, -1,
      354, 351, 350, -1,
      354, 350, 357, -1,
      357, 350, 363, -1,
      357, 363, 360, -1,
      332, 364, 334, -1,
      334, 364, 365, -1,
      334, 365, 366, -1,
      366, 365, 367, -1,
      366, 367, 368, -1,
      133, 132, 230, -1,
      230, 132, 131, -1,
      230, 131, 353, -1,
      353, 131, 229, -1,
      353, 229, 361, -1,
      361, 229, 369, -1,
      361, 369, 362, -1,
      362, 369, 370, -1,
      362, 370, 363, -1,
      363, 370, 371, -1,
      363, 371, 360, -1,
      360, 371, 372, -1,
      360, 372, 359, -1,
      359, 372, 373, -1,
      359, 373, 358, -1,
      358, 373, 374, -1,
      358, 374, 355, -1,
      355, 374, 375, -1,
      355, 375, 235, -1,
      235, 375, 255, -1,
      235, 255, 211, -1,
      211, 255, 236, -1,
      211, 236, 179, -1,
      179, 236, 178, -1,
      376, 377, 378, -1,
      378, 377, 379, -1,
      378, 379, 380, -1,
      380, 381, 378, -1,
      378, 381, 382, -1,
      378, 382, 376, -1,
      376, 382, 383, -1,
      376, 383, 384, -1,
      341, 343, 340, -1,
      340, 343, 385, -1,
      340, 385, 386, -1,
      386, 385, 387, -1,
      386, 387, 388, -1,
      388, 387, 389, -1,
      388, 389, 390, -1,
      390, 389, 391, -1,
      390, 391, 392, -1,
      392, 391, 393, -1,
      392, 393, 394, -1,
      394, 393, 395, -1,
      394, 395, 380, -1,
      380, 395, 396, -1,
      380, 396, 381, -1,
      377, 368, 379, -1,
      379, 368, 367, -1,
      379, 367, 380, -1,
      380, 367, 365, -1,
      380, 365, 394, -1,
      394, 365, 364, -1,
      394, 364, 392, -1,
      392, 364, 332, -1,
      392, 332, 390, -1,
      390, 332, 331, -1,
      390, 331, 388, -1,
      388, 331, 335, -1,
      388, 335, 386, -1,
      386, 335, 337, -1,
      386, 337, 340, -1,
      340, 337, 336, -1,
      340, 336, 338, -1,
      153, 163, 220, -1,
      220, 163, 344, -1,
      220, 344, 221, -1,
      221, 344, 342, -1,
      221, 342, 222, -1,
      222, 342, 341, -1,
      222, 341, 223, -1,
      223, 341, 339, -1,
      223, 339, 225, -1,
      225, 339, 338, -1,
      225, 338, 224, -1,
      224, 338, 336, -1,
      224, 336, 226, -1,
      226, 336, 333, -1,
      226, 333, 227, -1,
      227, 333, 334, -1,
      227, 334, 229, -1,
      229, 334, 366, -1,
      229, 366, 369, -1,
      369, 366, 368, -1,
      369, 368, 370, -1,
      370, 368, 377, -1,
      370, 377, 371, -1,
      371, 377, 376, -1,
      371, 376, 372, -1,
      372, 376, 384, -1,
      372, 384, 373, -1,
      90, 89, 215, -1,
      215, 89, 319, -1,
      215, 319, 214, -1,
      214, 319, 349, -1,
      214, 349, 216, -1,
      216, 349, 345, -1,
      216, 345, 218, -1,
      218, 345, 187, -1,
      218, 187, 219, -1,
      82, 81, 237, -1,
      237, 81, 210, -1,
      237, 210, 258, -1,
      258, 210, 255, -1,
      258, 255, 330, -1,
      330, 255, 375, -1,
      330, 375, 329, -1,
      329, 375, 374, -1,
      329, 374, 328, -1,
      328, 374, 373, -1,
      328, 373, 327, -1,
      327, 373, 384, -1,
      327, 384, 318, -1,
      318, 384, 383, -1,
      318, 383, 317, -1,
      317, 383, 382, -1,
      317, 382, 316, -1,
      316, 382, 381, -1,
      316, 381, 315, -1,
      315, 381, 396, -1,
      315, 396, 314, -1,
      314, 396, 395, -1,
      314, 395, 313, -1,
      313, 395, 393, -1,
      313, 393, 312, -1,
      312, 393, 391, -1,
      312, 391, 311, -1,
      311, 391, 389, -1,
      311, 389, 310, -1,
      310, 389, 387, -1,
      310, 387, 346, -1,
      346, 387, 385, -1,
      346, 385, 189, -1,
      189, 385, 343, -1,
      189, 343, 187, -1,
      187, 343, 344, -1,
      187, 344, 219, -1,
      219, 344, 163, -1,
      219, 163, 162, -1,
    ]
  }
}
